<mxfile host="app.diagrams.net" agent="Mozilla/5.0 (Windows NT 10.0; Win64; x64) AppleWebKit/537.36 (KHTML, like Gecko) Chrome/130.0.0.0 Safari/537.36 Edg/130.0.0.0" version="24.8.3">
  <diagram name="페이지-1" id="pOpnR7_Np0bIqmw10RXH">
    <mxGraphModel dx="1426" dy="781" grid="1" gridSize="10" guides="1" tooltips="1" connect="1" arrows="1" fold="1" page="1" pageScale="1" pageWidth="827" pageHeight="1169" math="0" shadow="0">
      <root>
        <mxCell id="0" />
        <mxCell id="1" parent="0" />
        <mxCell id="zy-CtgUMIQ0mxdJT6q3N-1" value="" style="shape=image;verticalLabelPosition=bottom;labelBackgroundColor=default;verticalAlign=top;aspect=fixed;imageAspect=0;image=data:image/png,iVBORw0KGgoAAAANSUhEUgAAAm4AAAJDCAYAAACympj7AAAAAXNSR0IArs4c6QAAAARnQU1BAACxjwv8YQUAAAAJcEhZcwAAFxEAABcRAcom8z8AAGGxSURBVHhe7d13tyXXeZh52xqTHAYAzABIJAIkACISQQAIECAgCMqRWaIiJVnByhIlWZYsywqW5Gx/H898kpk/Zs2aNfMh7pz3ggWdfvvp7v3uXVWn6tyn1vqtJgh0n7qnz6393L0r/BM3Nzc3Nzc3Nzc3Nzc3Nzc3Nzc3Nzc3Nzc3Nzc3ty1t/1SSJOkE3Fq2n/zJn/w/vvSlL11kh///Gj/xEz9xnR//8R9v8mM/9mPX+dEf/dFr/MiP/Aj64R/+YfRDP/RD1/jBH/xB9AM/8APX+f7v//5rfN/3fd913nrrLfS93/u913jzzTev8z3f8z3XeeONN9Drr79+jS9+8YvXee21167z6quvoi984QvXeOWVV67z8ssvX+fzn//8dV566aXrvPjii9d54YUXrvPd3/3d13n++eev89xzz13n2Wefvc7nPvc59PTTT1/jqaeeus6TTz55nSeeeAI9/vjj13jssceu89nPfhY9+uij13nkkUeu8fDDD1/nM5/5DPr0pz99jYceeug6n/rUp67zwAMPoPvvv/8699133zXuvffe69xzzz3ok5/85HU+8YlPXOPuu+++zl133YXuvPPO63z84x+/xsc+9rHrfPSjH0Uf+chHrvHhD3/4Oh/60Ieu88EPfvA6d9xxx3Vuv/3269x2223X+MAHPnBD73//+5vQ7+2V968Hfd096D3tQX9fVfQ56EWfsx7589uDvi960PddVf5evpnD3+v//E6iuKXtn0a0fe1rX7v4xje+cY2vf/3r14n/7thXv/pV9JWvfOU6X/7yl69zq1Cc9IbgjWJw6QikEKQADDkCW0OQgm/SE3059ia90UfBF3qjj4IvUPQ988wz17lV7E1OFX0twVeJPgq88OCDD16jNfpagq8SfS3BV4m+luALMXjkAYkGOxpEaYCmAMhRQcESKIhuhH5/r7x/Pejr7kHvaQ/6+6qiz0Gv/BnrRZ/hKvre6EHfdz3oezqL/Y7P2eGzH/HmLNzRdhltEWQRaj/1Uz91jRxy4VYhd7OYGwm31pm+lpALLTGXQ27SGnM53G4UbyPhRlpCjmIuh9ykNeZyuN0o3tYIN5qtu1XITVpjriXaRsKNoi20hlvLTF3IIXejmFs63CjaAh3UaTDIg0wevCZ5BoBCLtDAHnIwUIzkyKF4CjnOboZ+f4+8b73o6+6R389e9HdVNVdw0WesF32Gq/L3Ri/6vutB39NZvI/x+YjP2uHzH/H2z6JZLsvlCm7vrCMfguiaaPvpn/7pi29+85vviH/OWuKOYi5QzLXMyoUceDeKvJa4CznwKPJuFHe9MUezcqE38CjuQg68G0VeS8zdKOhaYo5m5UJv4FHchRx4oSXmcshNemOOZuVCb+BR3IXemMshN+mNOZqVC62B1xJzNwo6OtDnwYEGnkADGw2YeTAOeVYlUADkOJkGoIzC6kbo91fRfvWaK5YCva9V9PdVRZ+DHvQZ60Wf4ar8vdGLvu960Pf0sXitKcjjsxaf3UO8/W+HbvmugysXcPHFxhf9zw5R839GtE0xFr8eR9tIuB3PyB1ribkccreKuVOEG2mJuRxyN4u5NcKtZVYu9MZcJd7mDreWmbkccpPWmMvhdqN4mzvc8szcjWbnbhVyE4q5NcKtZVYu9MZcHPxpEKPBkQbfPKhTLAQKkWnQOR58SA6rm6Hf3yPvWy/6unvQe9oj/331oM9BD/qM9aLPcNVc0UXfdz3oe/pYvIfx2Zg+a/G5je+Bqxpv8YV+13G0hSnUfuZnfubiZ3/2Zy9+7ud+rkn8t/F7eh1HYtVxTB5rCcuQo5LcKjIrKEgDBWnIs4sUqa1yzE5aYjbkoG1F4XsjPSF8IxTIIccxzXQGiuZbyVFdRQEeeiP8ZiF+jKI8UJhnOdQr8uzszSI/y9E/ofjP8g8DN9PyA0IY+SHhFPK+nVq8X/S+6m35c3gVxA97xtvb2+Vs22HAxmgLEWK/8Au/cPGLv/iLTeK/7fXzP//zGIOtYl97UUS2OH6vqo7jskcO0goK11Y5Zlvl6K2i+G11syC+FQrmFhTMrXJQV+UAr6BQb0Gh3orCvSJHfgX9QNCKfkhoQT80SGLxA2WsVES8xUzhTeLtnx9EwEXbnGXAXUbbYYBpirZf+qVfuvgX/+Jf3NKv/MqvdPvlX/7lIbGPvb71rW91yeFakcO14qpFbjiO1iqK11YUry1yuFZQuFZQvLbKM8CtcrhWULxWULy2onhtRQHbguJVEosZt5gZjlNK4tSLWC6meLv99tsj3v6XaJvvOKt4m6Lt8kKEaXCLwXEaYGOAjjiIwIgo+oM/+IOLf/2v/3WTP/3TP+32r/7Vv+r2J3/yJ13++I//uNsf/dEfdfv2t7895A//8A+7xd9nj9/7vd8b8ru/+7vdfud3fqfbb//2b3f5rd/6rSG/+Zu/2e1f/st/2e03fuM3uv36r/96l1/7tV/r9qu/+qtD6IfIVvRDZKuRHxjpB0FJ14ofgiPcYgl9irc4n7Yh3qal07PYLqcQI9riDcnRFsEWMzIxq3McbX/1V3918V/+y3+5+K//9b/eUPz7Uf/5P//nLv/pP/2nbv/xP/7HIf/wD//Q7e///u+7/d3f/V23f//v/32Xv/3bvx3yN3/zN93++q//ult8fnv8u3/374b85V/+Zbd/+2//bbe/+Iu/6PZv/s2/6fZnf/Zn3eiHwFb0Q2AF/SDYin4YbEE/CEq6VpwKEeexHsdbLJtGvMXFI8fxFmDmbffbDZdHp2gLFG3//b//94v/8T/+x+WvN/Lf/tt/G0Ix2GIk+ALFXCsKuVb/4T/8h24UgRUUgi0oAltRCLaiCKygEGxBEdgqR2AFRWAFxVwrirkWFHKt/vzP/3wIhWArCsFWFIEtKAAlXS/OCY2Lo3K8xe2X4py3uHq4Id52u2T6TrTdaKYtlkZvFm0RSRQ+EwqbViMhQ2FSQYHSigKlFQVKK4qTCoqUFhQorXKcVFCcVNCMVgsKm1YjMUNxUkGB0ooCpQUFSis6YFfQjFYr+im/FZ0C0YJOfZB0rVgqjSvs4yp5ire4LVPcKmSaeTsOuKN4iyXTsLttlmiLwIpBnwbGQANfKxr4WuWf/Kto4GxFg2YrGjQraPBsRYNni5FBkga+ChoAW9FBoQWdH9gqvod6/f7v//4QOr+wFZ1f2ILOLWxF5xdW0PmFrUbOJ6RzBFvQOYKSrhUX8sRVpS3xNt0q5Cbxtqtl06Zoi2BribYY9GmgCDQItKKBoBUNBBU0ELSigaBVPhm9FQ0gFTSQtKJvrlZ0UnoFnZTeik5KbzGdgN6DTkhvlU/QrZq+n3vED3A94jjSK1/1XDWd5tEjjoO94jjaYzoOS2Jxdfx0y52WeItz3m4Rb7tZNp11pi2iLUKJBlEa9CpGBshAg18rGvgq8sBXkQe/Vnngq6CBr1Ue9KrywFeRB79WxweDKro9SEV83/U6vj1IVb49SAXdIqQF3SKkgu6h1+pwjOtGtwhpRbcIaZVvESLpH8U9FiPaWuMtnlwTtwrZc7zFTi0WbRE7cwXIJMdFFUVGqxwXFTkuWuW4qDqOiyoKjFY5LiooMFpRYLSiyGhFgdGKAqNVjosqutdZC4qTVhQnrejAXUH3fmqVb+bbKt/ItyIGIkk3Fjepnv53S7zFrFtcbRqP52tcNt1UvF0G28F3HQ7gi0QbhVIOmqocNhU5aqqOo6aK4qZFjpoKCpsKiptWFDetKG5aUdy0ylFTQXHTiuKmFcVNBcVNCwqbVhQ3rShuKqYnGfSYBoeq40enVcUARI9Wk/S2+B6J75Xp+236Xm2Jt4ceeuidq01vMvMWAbeJeJtm2m4YbVNoGW1vO46wKgqyVjnGKijGKijIWlGQtaIga0VB1irHWAUFWSsKslYUYxUUZS0oyFpRkLWiGKvIMVYxDQxVOcYqDDfp1nrjLW4Vcot4+98PnbSZZdN3oi0G6CkwIlAiciKS5o62kEOsKsdYRQ6xquMQq6Iga0VB1iqHWBUFWSsKslYUZC0oxipyjFVQkLWiIGtFMVZBUdaCgqwVBVkrirGKHGMV06BQlWOswnCT2ozEW9znbXrCwk1m3k4ab/HC+MD4CJwIpLmXRyc5xKpyjFXkEKs6DrEqCrJWFGStcohVUZC1oiBrRVHWgmKsgoKsFQVZqxxjFRRjFRRlLSjIWlGQtaIYq8gxVjENCFU5xioMN6ldT7zFBQv58Vhbi7dbRlsE1tZm2kIOsaocYlXHIVZFQdaKgqxVDrEqCrJWFGStKMpaUIxVUJC1oiBrlWOsgmKsFQVZKwqyVhRkrSjGKnKMVUyDQVWOsQrDTarpjbeYeYt4u+uuuzYTb/EiJ4m2kCOsRw6xihxhPY5DrIqCrBUFWascYlUUZK0oyFpQkLWiGKugIGtFQdYqx1gFBVkrCrJWFGStKMhaUYxV5BhrNQ0CPXKMVRhuUl1vvMXM24MPPnhx5513biLedh1tIcdYRY6wiuMA60VB1oqCrEWOsB4UZC0oyFpRkLWiGKugIGtFQdYqx1gFBVkrCrJWFGStKMhaUYxV5CBrNQ0APXKMVRhuUp/eeJseTN9wn7dFrza9abTFrxFG5xpt4TjEqo4DrAfFWCsKslY5wiooxiooyFpRkLWiGKugIGtFQdYqx1grirEKCrJWFGStKMhaUYxV5CBrNR38e+QYqzDcpH698RbLpnGT3lPdKuS6aIsgiF8jSiJqIrCWiLZAEdYjh1hVjrGK4wjrkWOsgoKsVY6xCoqxCgqyVhRkrSjGKijIWlGQtcpB1opirIKCrBUFWSsKslYUYxU5yFpNB/4eOcYqDDdpzEi8xdWmaz9h4Z1oi8E0BvOIgYiJCJIImoirLUdbDrAeOcSqcohV5RiryDFWQUHWKodYFQVZKwqyVhRjFRRkLSjGWuUYq6AYq6Aga0VB1oqCrBXFWIscYlXTQb9HjrEKw00a1xtvIc55W+tq08to+8IXvvCt2MEYECMEIiSmIIm4OveZtnAcYVU5wnrkGKugIGtFQdaKYqwix1gFBVkrirEKirIWFGStKMhaUYxVUJC1oiBrRUHWgoKs1XGE9ZgO+D1yjFUYbtI8RuItZt7yBQsRbu973/su3vve937r0FvDj8eK3xi+6xBuvxQ7EjsUOx4H+wiCiKuloi1QhPWgEKuiIGtFIVaVY6yCgqwVBVkrirEKCrJWFGStKMYqKMpaUJC1yjFWQTFWQUHWioKsFUVZCwqyVjnEqqaDfY8cYxWGmzSf3niLZdPpatMPfvCDF7fddtvF+9///oi2i3e/+92/cuitdx3EzFtXuF3OtH3HP3/llVd+eQq32Klpx2OQi8CKaPv93//9zc20BYqwKoqxCgqxVhRiVRRkrSjIWlGMVVCQtcoxVkEx1oJirIKCrBUFWSuKsQoKslYUZK0oylpQkLXKIVY1Heh75BirMNykefXE23G4RbSlcPu1Q2+97yDiretihSnc4je/5/Of//yvUrhNOxuD1m/8xm9sLtoChVgVxVgFBVkrCrEKirFWFGMVFGMVFGStKMha5BiroBiroCBrRUHWimKsgoKsFQVZCwqyVhRkrY4jrMd0kO+RY6zCcJPm1xpvEW6PP/74xWc+85nLq0xvEG6/ceitOw7+14PylabH0fbPD9730ksv/fpxuL311luXOz3taBy8Y7D81re+dfHHf/zHF3/3d393NtEWKMZaUYxVUIxVUJC1ohhrRSFWkUOsgoKsFQVZK4qxCgqyVhRkrXKIVVGQtaIoa0FB1oqCrNVxhPWYDvA9coxVGG7SMm4Ub/HvvvjFL14c+unic5/73MVnP/vZm4bbu971rt8+9NZHDt5/UJ51m8Itiu/dB7e9+OKLv/nqq69evP766xdvvvnmDcMtQiXiLCItgu23fuu3ThZtgSKsKodYFcVYBcVYBQVZKwqyVhRjFTnGKijIWlGQtaIYq6Aga0VB1iqHWBUFWQsKslYUZK0oyFodR1iP6eDeI8dYK6NNWtZxvMX/jkmuL3zhCxef//znL777u7+7Ndx+79Bbdx7ErNt7DmLiLFqsaYtwm2bbYsrug4cX/p1quMXsW1y0EBcv7DXaQg6xKoqxVhRiVRRkrSjIWlGMVeQYq6Aga0VB1opirIKCrBUFWascYlUUZS0oyFpRkLWiIGuVQ6zqOMSqcpC1Mtyk5cX3WbTR93zP91zOtHWE27cPvXXPwYcP3nsQDdY86xb/0TTbFifKfeTwwr87Em5rxdqEAqwqB1gPirEKCrEKirEKCrJWFGMVOcYqKMhaUZC1ohiroCBrRUHWKodYK4qxCgqyVhRkrSjIWuUQq8oxVkFR1sJwk9YRp5INhNufHHrrUwcfO4jl0miwpitMj5dJY6oufvPHn3vuuT+YM9wotuZCEdYjR1gPirEKirEKirFWFGMVFGMVOcYqKMhaUZC1ohiroCBrRUHWIsdYBcVYBQVZKwqyVhRkrXKIVeUYa0VB1spwk9YxGG5/euitTx/cdfCBg+5wi9985zPPPPOHsRMRbrFT05WlcUCJg1EcxGPAjFi5WbhRaM2NIqwqB1gvirFWFGJVFGStKMZaUYi1yhHWg4KsFQVZCwqxCoqxVhRkrXKMVVCMVVCQtaIga0VB1iqHWFUOslYUZK0MN2kdg+H2Z4feevjg7oPbDqLBusItfvNdI+EW/0yBNTcKsF45wHpQjFVQiLWiEKuiIGtFQdYqR1gVxVgrCrJWFGMVFGStKMha5RiroBiroCBrRUHWioKsVQ6xihxjFRRkrQw3aR2D4fbnh96KcPvEwe0HzRcozBJu+cIECq05UXz1ygHWi2KsgoKsFYVYFQVZKwqyVjnEqijIWlGQtaIYq6Aga0VB1irHWAXFWAUFWSsKshYUYxU5xipyjFVQkLUy3KR1zBBujxxM4RYXh3aH292HF/32zcItDsIx8EVwxJLomuFG8TWCIqwqR1gVxVgFhVgFxVgFBVkrirGKHGMVFGStKMYqKMhaUZC1oiBrlUOsioKsFUVZC4qxVjnEqnKMVVCQtTLcpHX0hNsHPvCB43B79OCTB+uHW0Sb4daPYqyCYqyCYqyCgqwVxVhFjrEKCrJWFGMVFGStKMhaUZC1yiFWRUHWiqKsBQVZqxxiVTnGKijIWhlu0jo2GW6xM1O4xZWlcVCIA1IchGPgi+hYM9wovEZQhPXIIVZFMVZBMVZBMdaKYqyCYqwix1gFBVkrirEKCrJWFGStKMha5RCroiBrQUHWioKsVQ6xKgqyVjnGKgw3aR2bDrfpliBxUIgDUhyEY+CL6Fgr3Ci8RlCAVeUA60EhVkEhVkVB1opirBWFWFWOsQoKslYUYxUUZK0oyFpRkLXKIdaKYqyCgqwVBVmrHGJVFGStcoxVGG7SOgy3m6DwGkUhVpUjrAfFWAWFWAXFWAUFWSsKsYocYhUUY60oxFpRiFVRkLWgGGuVY6yCYqyCgqwVBVmrHGJVFGStcoxVGG7SOgw3QME1B4qwqhxgvSjGWlGIVVGMVVCQtaIYq8gxVkFB1oqCrBWFWAUFWSsKslY5xiooxiooyFpRkLXKIVZFQdYqx1gro01aj+GWUHCNogDrlQOsB8VYBYVYFcVYK4qxCoqxihxjFRRkrSjIWlGMVVCQtaIga5VjrIJirIKCrBUFWascYlUUZK1ykLUy3KT1bCrcnnrqqXfCLZ56HzsWOxgHhjggxcE4Br+Ij7nDjYJrDhRfvXKA9aIYq6AQa0UhVkUx1opCrCrHWAUFWSsKslYUYxUUZK0oyFrlGKugGKugIGtFQdYqh1gVBVmLHGMVhpu0ns2F2yuvvHLx2muvrRpuFFxzoQDrkeOrB0VYFcVYBYVYFQVZKwqxVjnCelCQtaIga0UxVkFB1oqCrFWOsQqKsQoKslYUZK1yiLWiGKvIMVZhuEnrubLhRpE1NwqwXjnCelCIVVGMVVCIVVCMVVCQtcoRVkUx1opirBWFWBUFWSsKslY5xiooxlpRjLWiGGuVY6yCYqwix1iF4Sat50qGG0XW3Ci+euUA60ERVkUhVkEhVkUxVkFB1iqHWBUFWSsKslYUYlUUZC0oxlrlEKugGKugIGtFQdYqx1gFxVhFjrEKw01az5UKNwqsJVB8jcgR1oNCrIpirIJCrIpirBXFWEUOsSoKslYUZK0oxFpRjFVQkLXKMVZBMVZBQdaKgqxVjrEKirGKHGMVhpu0ns2F28svv3zx6quvXj72KuItriyNg0IcmOKAHANghEhruFFYLYWia0SOr14UYT0oxiooxFpRiFVRjLXKEdaDgqwVBVkrCrJWFGMVFGStcoxVUIxVUJC1oiBrlWOsgmKsgoKsleEmrcdwmxHF14gcYL0ownpQjFVQkLWiEKuiIGuVI6wHBVkrCrJWFGStKMYqKMha5RiroBiroCBrRUHWKsdYBcVYBQVZK8NNWs/ZhFv88ylibULhNSLH1wiKsCoKsQqKsQoKsSoKslY5wiooxKooyFpRkLWiGKugIGuVY6yCYqyCgqwVBVmrHGMVFGMVFGQt4vhsuEnr2VW4xQE1BrEIiQi0HG4UVGug8BpB8dUrB1gvirEKirEKCrEKirEKCrJWOcKqKMZaUYxVUIxVUJC1oiBrlUOsioKsFQVZqxxjFRRjFRRlLYw2aV27Cbc4sMQBNQayCIkItwi2aZn0VOFG4TWKAqxHjq8eFGFVFGIVFGJVFGOtKMYqcohVUZC1ohhrRSFWRUHWioKsVQ6xKgqyFhRjFRRkrXKIVVCQtTLcpHVVwu32229fNtyeeOIJDLfY0Ti4xAE1BrIIii2EG0XXKAqwXjnCelCIVVGMVVCIVVGQtaIYq8ghVkVB1oqCrBWFWAXFWCuKsVY5wiooxiooxlpRjLXKIVZFQdbKcJPWtclwix2JHYp421q4UWzNheKrVw6wHhRhPSjGKijEKijGKijGWuUI60FB1oqCrBXFWAUFWSsKslY5xiooxiooyFpRkLXKIVZFQdbKcJPWZbgVUGzNheJrRI6wHhRhVRRiFRRiVRRjFRRkrXKEVVGMtaIYq6AYq6Aga0VB1irHWAXFWAUFWSsKslY5xKooyFoZbtK6DLdGFFtzoOgakeOrF0VYD4qxCgqxKoqxVhRjFTnEqijIWlGMVVCMVVCQtaIga5VjrIJirIKCrBUFWascYlUUZK0MN2ldhtstUGzNieKrV46vERRhFRRhVRRhFRRiVRRjrXKE9aAga0Ux1opCrBWFWBUFWascYxUUYxUUZK0oyFrlEKuiIGtluEnr2ly4xQ5Mj72KcIudix2Ng0scWGMwi7BYI9wotOZE8TUix1cvCrEqCrEqirEKCrEqCrJWOcIqKMSqKMhaUZC1ohCroBhrlUOsgkKsFYVYFQVZqxxiVRRkt2KwSadhuCUUWEug8BqR46sXRVgVRVgPirEKCrEKirGKHGMVFGIVFGMVFGStKMYqKMha5RiroCBrRSFWQTHWKkdYBQVZK8NNOg3D7TsorpZC4TUix9cICrEqirAqCrEKCrEqirFWOcSqKMYqKMYqKMhaUYxVUJC1yjFWQUHWimKsgoKsVY6xCgqyVoabdBqG23dQYC2F4mtEjq8RFGJVFGJVFGMVFGJVFGStcohVUYxVUIxVUJC1ohiroCBrlWOsgoKsFcVYBQVZqxxjFRRkrQw36TSudLhRVC2NwmtEDq9eFGA9KMJ6UIxVUIhVUZC1yiFWRTFWQTHWimKsgmKsgoKsVY6xCgqyVhRjFRRkrXKMVVCQtTLcpNPYfLjF0xNiR+MgEwfXGNQiNEbCjYJqDRReo3KA9aII60ERVkUhVkERVkEhVpVDrIJCrIqCrBXFWCsKsVYUYlU5xiooyFpRjFVQkLXKMVZBQdbKcJNOY3Ph9tJLL12GWzz2KnZqrnCjkFoDxdZccnz1ogDrQRHWg2KsgmKsgkKsIodYFYVYKwqxKgqyVhRkrSjEKnKIVVCMVVCMVVCQtcoxVkFB1spwk07jbMONImptFFtzyOE1ggKsF0VYBUVYD4qxVhRiVTnEqijIWlGIVVGQtaIga0UxVpFjrIJirBWFWBUFWascYxUUZK0MN+k0zibcthJrEwquOeTwGkUB1oNCrIoirIpirIJCrCqHWAXFWAWFWAXFWAUFWSuKsYocYxUUZK0oxCooxlrlEKugGGtltEmns5twi4NFHCRjcIpQiFCLYDuebaOAOgUKrjlQeI3I8dWLIqyKIqwHxVgFhVgFxVhFDrEKCrEqirFWFGMVFGMVFGStcoxVUIxVUJC1oiBrlWOswnCTTmfT4RYXKES4vfXWW5cHizhIxgAVsbC1cKPQmhOF14gcXyMoxKoowqooxCooxKooxipyjFVQiFVRkLWiGGtFIVZBMVaRY6yCYqyCgqwVBVmrHGMVhpt0OpsKt8cee+zbL7744kU8r3RP4UahNScKr1E5vnpQgPWgCOtBMVZBIVZFMdYqh1gVhVgFxVgFBVkrirEKirFWOcSqKMYqKMhaUZC1yjFWYbhJp2O4DaLQmgsF1xxygPWiCOtBEVZBEVZFEVZBIVaVQ6yKYqyCYqyCgqwVxVgFBVmrHGIVFGJVFGStKMha5RirMNyk0zHcOlFozYmCa1QOrxEUYD0oxKooxKooxiooxKpyiFVQiFVRjLWiGKugGKugIGuVY6yCQqwVhVgFxVirHGIVRpt0WoZbAQXWEii6RuXwGkEB1otCrIIirAfFWAWFWEUOsSoKsSoKslYUY60oxFpRiFXlGKugIGtFMVZBQdYqx1iF4Sad1ibDLXYidibibQvhRnG1FIquUTm8RlGA9aAQq6IIq6IQq6AQq8ohVkUh1opCrIqCrBUFWSsKsYocYlUUZK0oxiooyFrlGKsw3KTTagm3T33qU4bbWii8RuXwGkUR1oNCrIpCrIpirIJCrCqHWBUFWSsKsSoKslYUZK0oxipyiFVRkLWiGKugIGuVY6zCcJNOy3C7CQqrJVF0zSGH1wgKsF4UYhUUYT0oxiooxKpyiFVQjFVQiFVQjFVQkLWiGKvIIVZBMVZBMVZBQdYqx1iF4SadluGWUFCtgYJrDjm8RlB89aIQq6IIq6IQq6AIq8gR1oNirIJirIJirBXFWAXFWEWOsQqKsVYUYlUUZK1yjFUYbtJpGW7fQTG1BoqtueTwGkUBVkUB1oMirAfFWAXFWEWOsB4UY60oxKooyFpRjLWiEKvKMVZBQdaKQqyCYqxVDrEKo006vSsbbhRRa6PYmkuOrlEUYT0ownpQhFVQhFVRiFXkAOtBMVZBIVZBMVZBQdaKQqwih1gVBVkrirEKCrJWOcYqDDfp9DYXbi+88MLF9Nir2KHXX399tnCjeDoFCq255OAaRfHViwKsB4VYFYVYFcVYRY6wHhRjFRRjFRRjFRRkrSjGKnKIVVCMVVCMVVCQtcoxVmG4Sad31uFG0XRqFFtzydE1iuJrBEVYDwqxCoqwHhRjFTnCqijEKijEqijGWlGMVVCMVeQYq6AYq6AYq6Aga5VjrMJwk05vF+EWOxkHjThgxoAVUXEcbj/7sz+72VA7RrE1lxxdc6D46kUB1oNCrIoirIpCrCJHWA+KsQoKsSoKslYUY60oxKpyjFVQjLWiEGtFIVaVY6zCcJNOb/PhFjsWOxkHjDjoxYATIRChFjNtYcvhRpE1N4quUTm8RlCA9aIQq6AI60ExVkEhVpVDrIpCrBWFWBUFWSsKsVYUYlU5xiooyFpRiFVQjLUy2qRt2Fy4xYvHBQrx2KuItz2HG0XW3Ci6RuXwGkUBVkUR1oMirIpCrIIirCIHWA+KsQoKsQqKsQoKslYUYhU5xKooyFpRjFVQkLUy3KRtMNwWQIG1BIquUTm6RlGEVVGA9aAI60ExVkExVpEjrAfFWAXFWAXFWCuKsQqKsYocYlUUZK0oxiooyFoZbtI2GG4zobBaCgXXqBxcoyjAelGE9aAIq6AI60ExVpEjrAfFWCsKsSoKslYUYxUUYxU5xCooxiooxiooyFoZbtI2GG4zocBaCoXXqBxeoyjAelGE9aAYq6AI60ExVpEjrAcFWSsKsSoKslYUYxUUYxU5xiooxiooxiooyFoZbtI2GG4zoLhaCkXXHHJ4jaIA60EB1oNCrIoirIpCrCIHWA+KsQoKsVYUYlUUY60oxKpyjFVQjLWiEGtFIVYRx1/DTdqGXYTbm2++uclwo7BaEgXXHHJ0jaIA60UR1oNCrIIirAfFWEWOsB4UY60oxiooxKooyFpRiLXKEdaDgqwVBVkrirEKGjwkncbmwu3555+/DLfYkYi31157bVPhRkG1BgquOeToGkXx1YsCrAeFWBVFWBWFWEUOsB4UYxUUYxUUYhUUYxUUZK1yhPWgIGtFQdaKYqyCBg9Jp2G4NaKYWhqF1pxydI2i+OpFAdaLQqyCIqwHxVhFjrAeFGMVFGOtKMSqKMZaUYxV5AirohhrRTFWQTFWQYOHpNMw3G6CYmotFFpzytE1BwqwXhRgVRRhPSjCKijCqnKA9aIYa0UxVkEhVkVB1opirFWOsB4UZK0oxlpRiFXR4CHpNAy3IxRQp0ChNaccXHOg+OpFEVZFAdaDQqyKQqwqB1gVhVgVxVgFhVgFxVgFBVmrHGE9KMhaUZC1ohBrFcddGjgknc6VDjeKplOiyJpTjq25UHz1oADrRRHWg0KsgiKsRw6xKgqxKoqxVhRiVRRjrSjGKnKEVVGMVVCQtaIga2W4SduzyXCbnle6RLhRMG0BhdaccmzNgeJrBAVYDwqwHhRiVRRhVTnCqijCqijGKijEqijIWlGMVeQQq6IYa0UxVkFB1spwk7bnrMONAmlrKLLmloNrDhReIyjAelGE9aAQq6AI65FDrIpCrIpirIJCrBWFWBXFWKscYT0oyFpRjLWiGKsw3KTtObtwozjaIgqsJeTgmgOF1wiKr14UYFUUYT0owqpyhFVRhFVQhFVRjFVQiFVRkLXKEdaDgqwVBVkrirFWccw13KTt2U24xc7GQSwGkxjsI9KmaPuZn/kZZ9gARdcccniNoPjqRRHWgyKsiiKsB8VYRQ6xKgqxKoqxCgqxCoqxCgqxVjnCelCQtaIga2W0Sdu0uXB77rnnLndgCrdXX331cgdjZ+MgFoNJDPgRahFthtuNUXTNIcfXCAqwXhRhPSjEqijCelCMVeQQq6IQq6IYq6AYq6AYq6Aga5UjrAcFWSsKslaGm7RNmw236crScwo3iqulUHDNIYfXKAqwXhRhVRRhPSjCKijCeuQQq6IQq6IYa0UhVkUx1opirCJHWBXFWAUFWSvDTdomw21hFFVLodCaU46uURRfPSjAelCA9aAQq6IIq8oRVkURVkUxVkEhVkVB1opirCKHWBXFWCuKsQrDTdomw20hFFZLotCaU46uURRgPSjAelGE9aAQq6AI65FDrIpCrIpirIJCrBWFWBXFWKscYT0oyFpRjLUy2qTtMtxmREG1BgqtueTgGkXxNYICrAcFWA8KsSqKsKocYVUUYVUUYhUUYxUUYhUUYxU5wiooxKooyFoZbtJ2GW4zoJhaC8XWXHJ0zYHiqxcFWC+KsB4UYhUUYT1yiFVRiFVRjFVQjLWiEKuiGKvIMVZBIVZFQdbKcJO2a3Ph9uyzz15Mj72KK0u3HG4UUmugyJpbDq45UHz1ovjqRQFWRRHWgyKsIgdYLwqxKoqxVhRjFRRiVRRjrXKIVVGIVVCMVRhu0nYZbgUUUWujyJpbDq45UHyNoADrQRHWgyKsikKsKgdYD4qwCgqxKoqxCgqxCoqxihxiVRRjFRRjrYw2adsMtwYUUKdAkTW3HFxzoPAaQQHWiyKsiiKsB4VYRQ6wXhRjFRRiVRRjrSjEqijGKnKIVVCIVVGQtTLcpG0z3ABF0ylRYM0tx9ZcKLxGUHz1oADrQQHWg0KsKgdYDwqxCoqwKoqxCgqxKoqxVjnEqijEKijGKgw3ads2F27PPPPMO+EWYqeWDjeKpS2gwFpCjq05UHSNoPjqRQHWiyKsB4VYRQ6wXhRjFRRiVRRjFRRirSjEqnKIVVGMVVCMtYpoM9ykbdtkuMWVpfG80iXCjQJpayiulpKDaw4UXqMowHpRgPWgAKuiCOuRA6wHhVgFRVgFRVgVxVgFhVhVDrEKCrEqCrJWRpu0fYbbBlFgLSVH1xwovEZRgPWiCOtBIVZFEdYjR1gPirEKirEKCrEqirEKCrGqHGMVFGJVFGStDDdp+3YZbjGQR4TdLNwoiPaA4moJFFxzydE1iuKrFwVYLwqxKoqwHjnCelCMVVCMVVCIVVGMVVCIVeQQq6IQa0UhVmW4Sdu3i3B74403Lnc2DmwxwMRgHnEWwRa++c1v7jrWAsXVUii25pKjaxTFVy+Kr14UYVUUYD1ygFVRhPWgGKugEKuiGGtFIVaVQ6yKgqwVhViV4SZt3+bD7ZVXXrkMt7feeuvy4BQDRAzo5xBuFFVLotCaU46uURRfIyjAelCE9aAIq6IQq8oB1oNCrIIirIpirIJCrIpirFUOsSoKsQoaICRtz6bC7dFHH30n3GInIt7OMdwoqpZGoTWnHF2jKLxGUID1ogirogjrQSFWkQOsF8VYBYVYFcVYBYVYKwqxqhxiVRRjFTRASNoew21FFFRroNCaU46uOVB89aL46kEB1oMCrAeFWFUOsB4UYhUUYVUUYhUUYxUUYlU5xCooxKpogJC0PYbbwiik1kKRNaccW3Oh+OpB8dWLAqwXRVgPCrGKHGC9KMYqKMSqKMYqKMYqKMQqcohVUYi18rw2aV8Mt4VQSK2JQmtOObbmQPE1ggKsFwVYDwqwKoqwHjnAelCIVVGIVVGMtaIQq6AQq8ohVkVB1spwk/Zls+EWT0+IHXn55Zd3E24UUGujyJpbDq45UHiNoPjqRQHWi0KsiiKsKgdYLwqxCoqwCgqxKoqxCgqxqhxiFRRjFYabtC+bC7d44el5pXsIN4qnU6DAWkIOrjlQeI2g+OpF8dWLIqyKIqxHDrAqirAeFGMVFGJVFGMVFGIVOcSqKMZaGW3S/hhunSieToUCa245tuZC4TWC4msEBVgVBVgvirCqHGE9KMKqKMQqKMKqKMQqKMSqcohVUZC1Mtyk/THcGlEwnRoF1txyaM2JwmsUxVcvirAeFGA9KMJ65AirogjrQTFWQSFWRTFWQSFWlUOsgmKswnCT9sdwa0ThdGoUWnPLsTUnCq9RFGC9KMJ6UIT1oAjrkUOsiiKsB8VYBYVYFcVYBYVYVY6xCoqxVhFthpu0P5sMt7hAYQvhRrG0BRRYS8ihNSeKrlEUXz0ovnpRgPWiCKvKEdaDIqyKQqyCIqyKQqyCIqwiR1gPCrJWRpu0T5sLt6effvoy3KZbgqwVbhRIW0NxtZQcWnOh4BpF8TWCAqwHxVcvirAeOcKqKMJ6UIxVUIhVUYxVUIxV5AjrQUHWynCT9unKhRsF0dZRWC0px9ZcKLpGUXiNoADrRQHWgwKsKgdYL4qwCoqwHhRiVRRjFRRjrXKA9aAYqzDcpH3aRbi9/vrr5XCjANobiqql5diaC0XXKAqvERRfvSjAelGIVeUA60EhVkURVkURVkERVkUxVpEjrAfFWCujTdqv3YRb7GgccOLgH4N2xFkEW/jpn/7ps4m1QEG1JAqtOeXgmgvFVy+Kr14UX70owqoownrkCKuiCOtBMVZBIVZFMVZBIVaRQ6zKcJP2y3DbEIqqpVFozSnH1lwovkZQgPWiAOtFIVZFEVaVI6wHRVgVhVgFRVgVhVgFhVhVDrEqw03ar82F21NPPXX54tMtQWKHzjncKKbWQqE1lxxac6LwGkHx1YviqwcFWA+KsB45wqoownpQjFVQiFVRjFVQiFXlEKsw2qR9M9xOhEJqLRRac8qhNScKrxEUXz0ovnpRgPWgAKvKAdaLIqyKQqyCIqwHxVgFhVirHGE9DDdp3wy3lVFIrYUia245tOZC0TWC4msEBVgvirAeFGJVOcB6UIT1oBiroAiroAirohiryBHWw3CT9s1wWwFF1JoosJaQY2suFF4jKLxGUHz1ogDrQRFWlQOsF0VYBUVYD4qxCgqxKoqxihxhVRFthpu0b5sKt8OLXRNucYHCXsONAuoUKLCWkGNrLhReoyi+elF89aIA60UhVpUDrAeFWBVFWBWFWAVFWBWFWEWOsB40CEjal82F25NPPnkRV5YabvOgyFpCDq65UHiNogDrRQHWiwKsF4VYVY6wHhRiVRRiVRRjFRRiVRRjFTnCetAgIGlfDLeZUDSdGgXWEnJszYWiaxTFVy+KrxEUYFUUYD1ygPWiEKugCOtBMVZBIVZFMVaRI6zCJVLpfBhugyiYTonCaik5tOZE0TWK4msExVcvirAeFGE9coD1oBCrogirohCrohCrohhrlUOsymiTzofhVkChtBUUVkvJkTU3iq5RFF4jKL56UHz1ogDrkQOsF4VYBUVYDwqxCoqwKoqxihxiVYabdD42FW4PPfTQ5sKNImlrKK6WkiNrThRcc6DwGkEB1osCrAcFWI8cXz0ownpQhFVQhPWgEKuiGKvIIVZluEnnY7PhFo+9inh76aWXVgs3iqIto7BaUg6tOVFwjaLomgMFWA8KsF4UYT1yhPWgCKuiEKuiCKuiCKugCKvKEVZltEnn5UqGG0XQXlBQrSGH1pwouuZA0TWC4qsXxVcvCrAeOcB6UIT1oBCroAjrQTFWQSFWlUOsynCTzsvZhhtFz55RTC0tB9YSKLjmQOE1guJrBAVYDwqwXjnCelCEVVGIVVGEVVGIVVCEVeUIqzLapPOz+XB78cUXL3fuzTffvDwIxYE9BuaIswi28FM/9VPG2swosuaWY2suFF4jKLxGUID1ogCrogDrkQOsF4VYBUVYD4qxCgqxKoqxCsNNOj+bC7cnnnjiYnp6QsTbVQw3Cqk1UWTNLcfWXCi8RlB4jaD46kURVkUB1isHWBVFWA+KsCoKsSoKsSqKsQrDTTo/htuGUEStheJqCTm05kThNYLCawTFVw8KsF4UYD1yhPWgCKuiCOtBIVZBEVZBEVZltEnnyXA7MYqotVFgLSGH1lwouuZA8TWCIqwHBVgPCrAeOcB6UIT1oAiroAjrQTFWQSFWZbhJ58lwOzEKqbVRZC0hB9dcKLrmQPE1giKsB0VYD4qwHjnCelCE9aAYq6AI60ExVkEhVhHHSsNNOk+G24lQQK2N4moJObTmRME1iqJrBMVXLwqwXhRhPXKE9aAIq6IQq6IIq6IQq6AQqzLapPO1+XB74YUXLl577bWzCDeKp1OhwFpCDq05UXSNovAaQfHVi+KrFwVYjxxgPSjCelCIVVGIVVGMVVCItZpm2gw36XxtMtymW4LETuw93CiaToXCaik5suZG0TWKwmsExdcICrAeFGC9coT1oAirogirogirohCroBirMNik82e4LYCi6dQorpaSI2tuFF2jKLxGUXz1ogDrRQFWleOrF0VYDwqxKgqxKoqxCoqxCsNNOn+G2wwolLaCwmpJObLmRtE1iqJrFMVXL4qvXhRhVTm+RlCEVVCA9aAIq6AI60ExVmG4SefPcCuiONoiiqol5cCaGwXXHCi6RlF89aL46kEB1ivHVy8KsSqKsB4UYxUUYVUUYhVGm3Q1GG4NKIy2iIJqDTmy5kbBNRcKrxEUXyMownpQgPXI8dWLIqyKAqwHhVgFRVgPirEKw026GjYXbo8//vhFxFtcWRrxtma4UQztBQXV0nJgLYFiaw4UXSMoukZQfPWiAOuVA6wXhVgVRVgPirEKirAqCrEKo026OqrhFnYfbhQ+e0VBtbQcV0uh4JoDhdcoiq9eFF+9KL565fjqQQHWgwKsB4VYFYVYFcVYheEmXR1nF24UN+eGYmotOa6WQLE1F4quURRfIyjAelGA9cgB1osirAdFWA8KsQqKsCoKsSrDTbo6dhducdCOATgibQq3b3zjG1ci3Cik1kKBNbccWXOj6BpF4TWC4qsXBVgvirCqHF+9KMB6UIhVUYhVUYhVxHHRcJOujs2F22OPPXZNuMXOvPrqqxhuMdMWItyuwmwbBdVaKLTmlkNrbhReoyi+RlCA9aIA60UhVpUDrBdFWA8KsSoKsSqKsQqjTbpaNhluMetmuP0jCqm1UGAtIUfW3Ci6RlF4jaD46kXx1YMCrEeOrxEUYRUUYD0owioowqqcbZOuntZwu+uuuwy3tVBAnQIF1hJyZM2NomsUhdcIiq8RFGFVFGC9cnz1ohCrogjrQTFWQSFWZbRJV4/htiEUT6dAcbWUHFlzouCaA4XXCAqvXhRgvSjAeuT46kURVkUB1oNCrIIirIfhJl09htsJUTSdCkXV0nJozYmCaxRF1xwowHpQfPWiAOuVA6wXhVgVRVgPirEKirAqOqBLOn+G2wlQOJ0SRdVScmAtgaJrFAXXKIqvXhRfvSi+euX46kEB1oMCrAeFWBWFWBUd0CWdv82FW7xoxFs89iri7RzCjWJpCyislpQDa24UXHOh8BpB8TWCAqwXBViPHGC9KMJ6UIT1oBCroAircHlUutoMt4VQKG0FRdXScmTNiUJrThReIyi8RlB89aIA65UDrAcFWA8KsCqKsB4UYxWGm3S1GW4zoUDaGgqqpeXImhuF1pwovEZQeI2g+OpF8dUjx1cvCrBeFGIVFGA9KMQqjDZJhlsnCqOtoqBaWg6sJVBozYnCawSF1wiKrxEUYVU5vkZQgPWgEKuiCOtBMVZhuEnabLjF0xMi3p5//vmThxvF0B5QUK0hB9YSKLTmQtE1B4qvERRfPSjAeuX46kUB1otCrIICrAeFWIXRJikYbkcofvaGQmotOa6WQrE1FwquURRdIyi+elF89crxNYICrIoirAdFWA+KsQrDTVIw3I5QCO0NBdVacmAthYJrLhReoyi+RlCA9aIA65XjawSFWBVFWA+KsB4UYxWGm6RwFuH29a9/vTncKHbOAYXUmnJcLYViay4UXaMovEZQfI2gAOuRw2sERVgVBVgPCrAeFGIVcewz3CSFXYVb7HAclGOQjQg7DrdzjrKboYhaC4XVUnJkzY2iaxSF1wgKrxEUYL0owKpyfI2gCOtBEVZBEdbDaJM02UW4xY7FTsYOx0E5BtoItVgiDVct3Cii1kZxtYQcWEug6BpF4TWCwmsExVcvirAeOb56UYD1oBCrogjrYbhJmmwu3B599NHLF47HXkW8GW5vo3g6BYqrpeTAWgJF1ygKr1EUX70ovnpRgPXI8TWCIqwHhVgFBVgPo03SMcNtwyicToniaik5sOZEsTUXiq5RFF8jKMB6UYRV5fAaQQHWg0KsiiKsh+Em6ZjhtkEUTadCUbW0HFpzotiaAwXXHCi8RlB89aAA65XjqxcFWC8KsQoKsB75gC1JhttGUDSdEgXVknJgLYGCaw4UXKMoukZQfPWi+OqV42sEBVgVRVgPirAe+YAtSZsNt7hAIeLtueeeO8two1jaCgqrJeXAWgIF1xwoukZReI2g+BpBAdYjh9cIirAqCrAeFGBVLo9KupHNhdsjjzxyEfF2juFGkbQVFFRryIG1BAquOVB0jaLwGkHhNYICrFeOrxEUYlUUYT0oxCqMNkk3Y7gtiAJpayim1pDjagkUW3Oh6BpF4TWK4qsXxVevHF69KMB6UID1oBCrMtwk3YzhNhOKoi2jmFpDjqulUGzNhaJrDhReIyi+elF8jcgB1oMCrBdFWA8KsYqINsNN0s0YbjOhONoyiqo15MBaCgXXXCi65kDxNYICrBfF14gcYT0owHpRhPWgGKsw2iTdiuHWiWJo6yik1pLDakkUW3Og2JoLhdcIiq8RFF89cnyNoADrQQFWRRFW5WybpBabCrfDC3374Ycfvoh4i3ALWwg3iqA9oZBaUw6rpVBszYViay4UXr0oukZQfPXK4TWCAqwHRVgPCrEqo01SC8PtCEXPnlFErS3H1RIotOZEsTUHCq8RFF4jKL565fAaQQHWiyKsiiKsh+EmqcWVCjeKm3ND8bS2HFZLotCaEwXXHCi8RlF8jaAA65XjawQFWA+KsCoKsB5Gm6RWuwy3GFAjxCLYwte+9rUrE2Y3QgG1NgqrJeXImhsF1xwoukZReI2g+OqVw2sEBVgvCrEqirAehpukVpsPt2efffbilVdeuXjjjTcu3nrrrcsDbgyqhtvbKKBOgcJqSTmy5kSxNReKrlEUXiMovnpRfPXK4dWLAqwHBViVwSaparPhFi8eDLdrUTSdCgXV0nJkzY1iay4UXaMovEZQfI2gAOuVA6wHBVgvCrEqw01SleG2ExROp0RRtaQcWEug2JoDBdccKLxGUHiNoPjqkeNrBAVYD4qwKqNNUg/DbaMolraAomppObCWQME1BwquURRdIyi6RlB89crhNYICrAdFWA/DTVIPw21DKJS2goJqaTmulkLBNQeKrlEUXqMovnpRfI3I8dWLAqwXRViV0Sap1+bCLV4w4i2ennDu4UaBtCUUU2vJcTU3Cq05UXSNougaRfE1guKrV46vERRgVRRgPSLaDDdJvQy3E6JY2hIKqrXk0JobxdacKLxGUXiNovgaQQHWK8fXCAqxKoqwHkabpBGG28ookLaGQmoNOa6WQqE1J4quOVB4jaDwGkHx1SuH1wiKsB4UYVXOtkkaZbgtjMJoyyio1pDjaikUWnOi4JoDhdcICq8RFF8jcnz1oPjqRRHWw2iTNMpwmxGF0B5QSK0px9VSKLTmQrE1FwqvERReIyi8RuQA60UB1oMCrJfhJmnU5sPtmWee2Wy4UQTtCUXUmnJYLYliay4UW3Oh8BpF8TWC4qtHDq8RFGC9KMB60AFYkqo2F26f/vSnL180bgkS8Rbh9vLLL5803Ch69owiam05rJZAkTU3iq05UHDNgcJrBAVYjxxeIyi+elGAVTnLJmlOhtt3UOCcCwqnU8hhtSSKrLlRcM2BgmsURdcIiq8ROb5GUID1oAjrYbhJmtPZhxuFzFVB8XQKOaqWRpE1NwquOVB0jaLwGkHhNSKH1wgKsF4UYVVGm6S5bT7cYkci3F5//fXLnY0DagycEWURbMfRRvFy1VA4nRKF1ZJyYC2BgmsOFF2jKLxGUHiNoPjqlcNrBEVYD8NN0tw2FW7333//tx966KGLiLe4QCHizXC7NQqmU6KgWlIOqyVQaM2JomsUhdcoiq9eFF8jcnz1oPjqZbRJWoLhtmMUTadEUbW0HFhLoNCaE0XXKIquURRfIyi+euUA60UB1sNok7QUw21HKJa2gqJqaTmwlkChNRcKrlEUXHOg8BpB8dUjh9cICrBehpukpRhuO0LBtBUUVkvLkbUECq65UHiNouiaA8XXCIqwHjm+RlCA9YhoM9wkLcVw2zAKpC2hmFpDjqulUGzNhaJrFAXXKIquERRfI3J89aIA62G0SVra5sPt6aefvlLhRoG0NRRTa8lxtQQKrTlRdI2i6BpF4TWCwmtEjq8RFGE96CArSXPqDbf3ve99y4ZbvHDEW4Rb7NS5hhuF0VZRSK0hh9WSKLTmRNE1BwqvERReoyi+euXwGkEB1osOspI0J8PtBCiKtopCak05rJZCkTU3Cq45UHiNoOgaRfHVK4fXCIqvHi6PSlqL4bYwiqE9oIhaUw6rJVFkzYliay4UXqMovEZQfI3I8TWCIqzKaJO0pp5wu+222ww3QgG0NxRRa8thtSQKrblQaM2JomsUhdcICq8RObxGUIT1MNwkrclwG0Dhs0cUT2vLQbU0Cq05UWjNhYJrDhReIyi8RuTw6kXx1ctok7S2zYXbgw8+eBHxFi8cTh1uFDrnggLqFHJULYkia24UW3Oh4BpF0TUHiq8eObxGUYD1Mtwkrc1wO6CoOWcUT6eQo2ppFFlzo9iaC0XXKAquURRfI3J4jaD46mW0STqFSrjdcccd+wk3CpariqLpVHJMrYUia04UWnOi6BpF0TWKwmtEDq8RFF+9jDZJp7KbcIsdfPPNNy8PmjFQRpxFtH31q1+9JtwoXK4qCqdToqBaUo6rpVBozYmiaxRF1ygKrxEUX71yeI0y3CSdyubCLV7sONyeeuqpG4ZbRFsw2hjF0ylRXC0pB9ZSKLbmROE1isJrFMXXCAqwXjm8ekWwTeiAKklL22S4xaxbXFkaDLd2FEtbQFG1tBxXS6HQmhNF1yiKrlEUXiMovkbkAOthsEnaAsPtDFAsnRrF1BpyWC2FImsuFFtzoegaReE1gsJrRA6wHkabpK0w3HaIQmkrKKbWkuNqKRRbc6HYmgMF1xwovEZRfPXI8TXCaJO0FYbbTlAkbQ3F1NJyVC2JQmtOFFxzoOCaC4VXL4qvETm+RhhukrbCcNsoCqOtoqBaQw6rJVFozYmCaw4UW3Og8BpB4TUih9cIo03Slmwu3B544IHLF4wrS69auFEUbRWF1JpyWC2FImtuFFxzoOCaA4XXCAqvETm8RhhtkrbGcDsRiqE9oIhaUw6rJVFkzYliay4UXHOg8BpB4TUih9cow03S1hhuK6IQ2guKqLXkoFoaRdbcKLbmQLE1FwqvURRfvXJ0jaIDpiSdmuG2AAqfvaGAOoUcVUujyJobBdccKLbmQtE1iuJrRA6vXs6ySdqyzYZbXKAQ8fbkk09evPTSS5sNN4qePaN4OoUcVEujwFoCBdccKLbmQME1BwqvETm+ehltkrZuU+F27733bjLcKHDOCYXTKeWoWhoF1pwotOZEwTUHCq5RFF0jcniNMtwkbd0mwy0YbuuheDqlHFZLo9iaE8XWnCi65kDhNYria0QOrxERbYabpK0z3A4oZq4CiqZTyTG1FgqtOVFozYmCaw4UXaMovEbk8BphtEnai12FW+xoHFxjQIzgimj7yle+guFGoXLVUTCdGsXU0nJcLYVCa04UXHOg6BpF4TWC4quX0SZpT3YRbi+++OLFa6+9dl24RbSFKdooVmSwHctxtRQKrblQbM2FomsUhdcoCrBeRpukPdlcuN1///2X4RYvGvFmuPWhWNoCiqk15LBaEsXWXCi25kLRNYqiaxTF1wjDTdKeGG5ngiJpSyim1pLDagkUWXOj2JoDBddcKLxGUHiNoIOiJG2Z4bZjFEhbQyG1hhxWS6LImhsF1xwotuZC4TWCwquXs2yS9spw2xEKoy2ikFpTDqslUWTNjYJrDhRbc6DoGkHhNcJok7Rnmw+3J5544sqGG0XRllFErSlH1dIosuZGwTUHCq45UHiNovjqZbRJ2rtNhdsnP/nJb993330XEW/xouGqhRsF0dZRRK0pB9XSKLDmRKE1JwquOVB0jaL4GmG4Sdo7w+2EKIL2ggJqbTmolkaRNTcKrTlRcM2BomsUhdcIo03SOTDcVkQBtDcUUGvLQbUGiqy5UWjNhWJrLhRdoyi8RsRxw3CTdA4MtxVRCO0NhdTaclStgUJrbhRcc6HgmguF1yiKr15Gm6RzYrgtgIJnryicTikH1dIosJZAsTUXiq25UHSNovjqYbBJOkebC7d77733IuItriwNWw43Cp1zQdF0Kjmm1kKBtQSKrblQbM2BgmsUxdcIo03SOTLcboGi5pxROJ1KDqk1UFgthUJrThRcc6DoGkXhNcpwk3SOrnS4UbhcNRRMW5CDag0UV0ugyJobBdccKLpGUXSNMtoknauzCjcKEzGKpVPLIbUWiqulUGTNiWJrLhRdoyi6Rhltks7Z5sPt8ccfv3jhhRcuXn311Ys33njjcqdjAIwZsy9/+cuXptk2ChS9jUJpKyim1pLDakkUWnOi2JoLRdccKLxGGG2Szt0mwy3ElaXBcOtHkbQlFFJryVG1FAqsJVBszYFiay4UXiOMNklXgeF2ZiiQtoQiak05rJZEgbUECq45UGzNhcKrl8Em6Sox3HaO4miLKKLWlKNqaRRYc6PYmgvF1hwovEYZbpKuEsNtZyiKtowiam05qpZGkTUnCq05UXDNgaJrlNEm6arZXLjdc889l+EWFygEw81Y65FjamkUWEug0JoTBdccKLpGRbQZbpKuGsNtYyiE9oIC6hRyVC2NAmsJFFpzouCaA0XXKKNN0lVluG0MBdFeUESdQg6rpVFkLYFia04UXXOg8BphtEm6ygy3E6L42SOKp1PIQbUGCqwlUGjNhWJrLhReI4w2SVed4bYiip69onA6hRxSa6G4WgKF1pwotuZC4TUqH8Ak6arZfLg99thjlzu0p3Cj0DkHFE6nlGNqLRRYc6PImhvF1hwouEY5yyZJb9tUuB1e5NuHeLs4jrcthxvFzbmhYDq1HFJroLhaCkXW3Ci45kDRNcpok6R/ZLjdAsXMuaNYOrUcUmuiuFoKRdacKLbmQtE1ymiTpGtdyXCjWLnqKJa2IEfUmiislkKRNScKrTlRdI0y2iTpepsPt9iJKdxef/31y52OgS4C7Etf+tI10UZBohujUNoKCqm15KhaGoXWnCi05kTRNcpokyRWCbcPfvCDl/FmuO0chdKWUEytIQfV0iiy5kahNSeKrlH5ICVJ+kebDLfjeDPcxlEcbQ2F1JpyVC2JAmsJFFpzoeCaSz5ISZL+keF2piiOtogiak05qpZGgbUEiq25UGzNIZZHXSKVpJsz3M4ABdHWUUStJcfUWiiw5kSRNTcKrjkYbZLUxnA7AxRGW0dBtZYcVGuh2JoThdbcKLpGGW2S1G5z4faJT3zimnB79NFHL55//nnD7QiF0NZRQJ1Cjqk1UGTNjSJrThRcczDaJKlmk+EWItyC4fY2iqE9oHg6hRxTa6DAWgKF1lwotuZktElSjeG2QRRAe0LhdEo5qNZAgbUEiq25UGjNyWiTpDrD7cQofPaKoulUckitheJqKRRbc6HQmovBJkn9DLcVUeycAwqnU8khtRYKqyVQZM2NYmsuRpskjTHcFkBxc04omE4pR9SaKK6WQpE1N4qtuRhtkjRuc+F29913X4TptiBbDTcKmnNH0XRqOaTWRHG1FIqsuVFszcVok6R5GG6AouUqolDaihxRa6KwWgoF1twotOaSDziSpDFXKtwoTnQtiqQtyRG1JgqrpVBgzY1Cay7OsEnSMnYTbrFzsZNvvfXW5cAWIXYcboZZPwqkLaGIWlOOqqVRZM2NYmsuEW2GmyQtY3PhFi8U4TZdpPDII49cPPfccxhuebaNokSMAmlrKKLWlqNqaRRZc6PYmovRJknLMtyuKAqlraGQWlsOq6VRaM2NgmsORpskLc9wuyIojLaKAmpNOabWQIG1BAquORhtkrQOw+2MURRtFQXU2nJMrYUCa24UW3My2iRpHYbbmaAY2gMKqFPIMbU0iqulUGjNiQ4skqRlGG47RiG0FxRPp5CDag0UV0ugyJqTs2yStL5NhtsUb8FwexvFz55QNJ1KDqm1UFwthUJrTkabJJ2G4bZBFD57ReF0Sjmm1kBhtRSKrLkZbZJ0OobbiVHs7B0F06nlmFoLxdUSKLDmZrBJ0ukZbiuiyDkXFEunliNqTRRXS6HImhsdPCRJ69tUuH384x//9p133nkRpoB7+OGHL5599tldhRuFzTmiWNqCHFFro7haCkXWnJxlk6RtMdw6UchcBRRKW5EDak0UVUuhwFpCRJvhJknbYrglFCsy2G6EwmpJFFhLMNokaZsMt4SiRYbbjVBcLYkia25GmyRt1+7CLXY4BrCIrONwywEWKEDUhgJpayik1pSjamkUWXOZYs1ok6Rt23y4xQ4888wzF6+88sp14ZZn2yhA1IbCaKsootaUg2ppFFpzM9YkaR82F24HF2GKN8NtORRFW0UBtbYcVGugyJqb0SZJ+2G4XSEURFtG8XQKOabWQIG1BKNNkvbFcDtzFERbR/F0Cjmm1kBxtRSjTZL2x3A7IxRBe0HhdCo5ptZCcbUEOhBIkvbBcNs5iqA9oXA6lRxSa6G4WoIzbJK0f5sKt49+9KPXhFv49Kc/bbh9B4XPXlE4nUoOqbVQXC3FaJOk82C4bRCFzt5RMJ1Sjqg1UVgtxWCTpPNiuJ0YRc45oWg6tRxSa6K4WkpEm+EmSefFcFsRhc25oVDaihxRa6GoWprRJknnqSfcbr/99uXC7WMf+9hFMNz2iYJpK3JQrYXCaikGmySdt82G2zTztqdwo5C5KiiUtiKH1JoorpYwBZvRJknnzXAromi5iiiQtiQH1NoorpZisEnS1WG4fQfFia5HkbQlOaDWRmG1NKNNkq6Oswk342sZFEdbk+PpFCiolmSsSdLVtJtwe/nlly9ee+21izfffPNy4IpQy7NtFB6qozjaIgqoteWgWoPRJklX1+bC7eAiTAH30EMPGW4LoyjaMgqoU8hBtTSDTZJkuF1RFERbRuF0Kjmo1mC0SZKC4XYFUAjtAUXTqeSQWoOxJknKDLczRSG0FxROp5Jjai1GmySJbDLcPvKRj1zGWzDcbo3iZ28omk4tx9RaItoMN0kSMdx2hqJnryiWTi1H1JqmYDPaJEk3YrjtDAXQXlE4nVqOqaUdx5rBJkm6FcNtwyh29o5iaQtyUK3BWJMkVRluG0GRc04olrYgx9QanGGTJPXaXLhFtOVwi505l3CjqDlHFElbkUNqbQabJKnXJsPtwx/+8GW8hQcffHB34UYhcxVQJG1JDqhTMNokSSMMtyIKlquOImlLcjytzViTJM3FcPsOChIxiqOtyfF0CgabJGluZxFuU7RRZGgeFEdblOPpVIw2SdISNh9u8eKxM7Fjr7766uXOxqAYoRYzbcezbRQc6kNRtFUUTqdgrEmSlra5cIto+9CHPvROvBlu66Ag2jqKp1Mw2CRJazHcrigKob2geDoVo02StCbD7YqgANoLCqZTi8/ghL6xJElaguF2RVAQ7QWF0ykYa5KkU9tFuD399NOGWxEF0N5QPJ2CwSZJ2opNh1sw3G6NomfPKJ5OwWCTJG2N4bYzFDp7R9G0BfQNI0nSKRluG0aRc04olk7N2TVJ0pYZbhtBYXNuKJS2wmCTJO3BpsLtEGpnHW4UM1cBhdIWGGuSpL3ZXLhFtMULxa/hgQce2E24UbRcRRRJW2KwSZL2ynAroEjR2yiQtsZgkyTt3ZUONwoQtaEw2iJjTZJ0TnrD7f3vf/+64fbSSy9d7uAbb7xxueMRXhFsx9FGgaH5UBhtlcEmSTpHmwu36UXi1xDh9tRTTxluJ0BBtHURbJP8YZckae82H27333+/4XYiFEZbdBxrBpsk6ZwZbroGhdFWGWuSpKvGcLvCKIa27DjUDDZJ0lVUCbfpugHDbacohvbEUJMkXXWG2xmj+Nkjg02SpLe1htvdd9+9XrjFC0S8BcOtDQXPnuUPqiRJagu3Bx980HDbCoqcc+HMmiRJN2e4bRjFzbkx1iRJame4nRjFzLkz1iRJ6rO5cItYu+222y5fJNx3330XTz755FmEG0XMVWGsSZI0znCbCcXKVWaoSZI0P8OtAYWJrhexdix/2CRJ0hjDrQFFiq4PNWNNkqRl7SrcXnnllYvXX3/94q233roMquNwy7F1IxQgameoSZJ0OpsLt/jDj8Pt3nvvvXjiiScuXnzxxevCLYLteLaNQkNjcqgZa5Iknc5mw21iuJ2WoSZJ0nYYbroGfUgkSdI2GG5XnDNqkiTth+F2hRhpkiTtm+F2xugvXJIk7demwu3wh387Yu0DH/jAO+F2zz33GG4NnE2TJOn8GW47Y6BJknR1GW4bZqRJkqRjhtuJRZzdDP2lSZKkq8lwWwEF2TH6i5EkSco2GW7xh0e8hT2EG8VYRm++JElSheF2AxRfN0NvriRJ0pwMtxswxiRJ0tacfbgZYJIk6VzsItwef/zxixdeeOHi5ZdfvtzR2OmIsgi242ijL1CSJOlcbC7cItbe9773Xb5A+OQnP2m4SZIkHRhukiRJO2G4SZIk7YThJkmStBObDrf41XCTJEl6W0+43XHHHcuFW/zB733vey+jzXCTJEn6R4abJEnSThhukiRJO2G4SZIk7URruH3iE58w3CRJkk7JcJMkSdoJw02SJGknDDdJkqSdMNwkSZJ2wnCTJEnaCcNNkiRpJzYXbj5kXpIkiRlukiRJO2G4SZIk7YThJkmStBOGmyRJ0k4YbpIkSTthuEmSJO2E4SZJkrQThpskSdJOGG6SJEk7YbhJkiTthOEmSZK0E4abJEnSThhukiRJO2G4SZIk7YThJkmStBOGmyRJ0k4YbpIkSTuxuXC77bbbLv/wCLhwzz33GG6SJEkHhpskSdJOGG6SJEk7MRJu73nPeww3SZKktRhukiRJO2G4SZIk7UQl3D784Q9fxpvhJkmSdAKGmyRJ0k4YbpIkSTthuEmSJO2E4SZJkrQThpskSdJOGG6SJEk7YbhJkiTthOEmSZK0E4abJEnSThhukiRJO2G4SZIk7cQmwy2CLX4NhpskSdLbDDdJkqSdMNwkSZJ2wnCTJEnaCcNNkiRpJww3SZKknTDcJEmSdsJwkyRJ2gnDTZIkaScMN0mSpJ0w3CRJknbCcJMkSdoJw02SJGknDDdJkqSdMNwkSZJ2ojfcoq0MN0mSpBUZbpIkSTuxi3B74oknDDdJknTl9YTboa+WCbfDC3z79ttvfyfawr333mu4SZIkHVTC7SMf+YjhJkmSdCqGmyRJ0k4YbpIkSTthuEmSJO2E4SZJkrQThpskSdJOGG6SJEk7YbhJkiTthOEmSZK0E4abJEnSThhukiRJO2G4SZIk7YThJkmStBOGmyRJ0k4YbpIkSTthuEmSJO3E5sLtjjvuuAy2CLhguEmSJL3NcJMkSdoJw02SJGknDDdJkqSdMNwkSZJ2wnCTJEnaCcNNkiRpJww3SZKknTDcJEmSdsJwkyRJ2gnDTZIkaScMN0mSpJ0w3CRJknaiGm6HtjLcJEmSTsFwkyRJ2gnDTZIkaScMN0mSpJ0w3CRJknbCcJMkSdqJzYVb/OERbBFw4b777rt48sknDTdJknTlGW6SJEk7YbhJkiTthOEmSZK0E4abJEnSThhukiRJO2G4SZIk7YThJkmStBOGmyRJ0k4YbpIkSTthuEmSJO2E4SZJkrQThpskSdJOGG6SJEk7YbhJkiTthOEmSZK0E4abJEnSTmwy3CLY4tdw//33G26SJEkHhpskSdJOGG6SJEk7YbhJkiTthOEmSZK0Ez3h9qEPfejitttuM9wkSZLWVAm3j370o5fxZrhJkiSdQGu4ffKTnzTcJEmSTslwkyRJ2gnDTZIkaScMN0mSpJ0w3CRJknbCcJMkSdoJw02SJGknDDdJkqSdMNwkSZJ2wnCTJEnaic2FW/zhhpskSdL1NhluEWzxa3jggQcMN0mSpAPDTZIkaScMN0mSpJ0w3CRJknbCcJMkSdoJw02SJGknDDdJkqSdMNwkSZJ2wnCTJEnaCcNNkiRpJww3SZKknTDcJEmSdsJwkyRJ2gnDTZIkaSd2H27x61tvvYVfnCRJ0rmI3nnzzTf3GW6x86+//vrFG2+8cflFTP8ffaGSJEl7dhxt0T/h1VdfvXjllVcw3O65555thFuU5UsvvXS5o7HDxpskSTpnFG0xkXUccM8+++w2wu2+++67eOyxxy6eeuqpS1GUzz//vPEmSZLO3q2i7bXXXruc3IpJrocffnjdpdLDC3z7EG+XLzD9Gi8as26PP/74pdgx402SJJ27arQ99NBDl9EWk1533nnnOuH28Y9//OJjH/vY5Yvccccdl4w3SZJ0lfRG27333nsZbRFsU7QtFm5PPfXUN5999tn/K6b3crzFi8fOGG+SJOmcjURbTIDlaItT0KKr3vWud/3IobfmC7eDzzz22GO/9Mwzz/zfFG+xfHr//fcbb5Ik6Sz1RNunPvWpy+XRadWSou0973nPNw6d9fzBrOH26YNnDjvyW4d4+39uFG+xg8abJEk6J73RNi2P3ija3v3ud3/r0FdvHES4PXIwHG4fOLjr4KGDpw++eNiZPzrE2/9L8Rb/HDv76KOPGm+SJGn3RqPt+EKEFG2/eeiqWCJ9/eC5g4cPPnEQk2bRYF3h9v6DOw8ePHjq4NWDH3zggQf+4hBk/9+NznmLZdNHHnnEeJMkSbvVG21xr7abRdu73vWu3zn01FcPfvjgiwfPHHzmIFY5p3CLFosuu+UW/1H8x+8+eN/Bxw4eOHj84PMHbx38xCHe/vJG8RY7a7xJkqS96om246tHbxJtv3/oqJ86+MmD7z945eDJg5gk+/hBTJpFg5XC7bsO3nXw3oMPH8Saa0zhxVReTOlFIX7lEGd/TfEWO3fXXXddnpDnsqkkSdqT3mhrmGmLaPtmNNTBjx58z8ELB3Fhwr0HHz2ISbNosGix5nCL5dJYW42T4+44iAL81EEsl7508H0HP37wtZvFW/zz9IQF402SJG3dgjNtf3Dopoi2rx/8xMEPHLx88LmDuAg0rin40EG0V1e4TculcYHCRw5i1i2ueIh12C8cxAvGC9803mLn4wsy3iRJ0pb1Rtt0y49bRNvPHES0xRLpDx28dhArmY8d3HcQs21xftu0TBotVgq34+XSadbt/oOYzovLVuMF44VvGW9xq5BPf/rTlw9ZNd4kSdLWjEZbBNsNou0PD530swcRbV86iNPN4rSzWCKNaIsVzbgQ9IMH0zLpFG7NW8RbhFv8xunq0vgDYxovLlSIF4oXjCshppm3rx/i7W8o3kJ8MfFFOvMmSZK2ZIVoi5vsxkxbRFuc1xannU0XJMQtQGKJNFY4Y5k02qt5mXTa4j+eZt7iXLeYtot4iz844i3q8ImDKd7iqojYoSne8D5vMfMWzzbtibf4VZIkaW490RYXItwi2mJ59OcOItpipu0HD6Zoi2sG4h65EW1xOlpEW0yUxWxb8xIpbdPM2xRv8QdP8RaVGLUY8RbLprFDU7zFsinGW3xxh39/GW6t8RZvpiRJ0hKiNyrR1vDs0eOZtuPl0RcP4oEGcTHCFG1xXlv3TBtt0/luEW9RgzneYubtuw9ih66Jt6effvqGy6aVeJMkSVpSa7Q13PKDoi1m2iLaYqYtbrSboy0aK1praLZt2qYl0+OZtzh5bjrnLZZNP3sQ8Tad8zbdKuSvKN7i1/jnlnijN1eSJGlut4q2aabtFlePHkdbXMQZzyKNaIuJrml5NCbA4hS0mBCboi16azjapu043mL9dbpgYZp5i6tN44KFaebt+IKFd642jS92irc4361l5o1OIpQkSZrbjaItHmPVcMuPmGmLW37kaItz2iLaYqIrbq0WDzaYLkSY7tc2y0zb8TaF2/HMW142nR6LNZ3zNs28vRNv04l80xca4g2ICxboCQsxZflDP/RDkiRJi4vz3XK0RaNEtMXyaATbTWbapgsRYuIqoi0msuJRocdXj0a0Tcujx7f9mDXapo3iLV443ypkOudtuto04u0bN4u3+KJjCjI/2/QLX/jCZflKkiQtLbqDZtoaoi2WR6fnj8b5/tOFCHFOW462uD/uYjNteYs/fAq445m3fKuQmHk7Puct6jPi7a9uFG/xz3nm7ZlnnpEkSVoNRVvDhQgRbdMtP6bl0Zhpm85pm5ZHo5lWi7bjLcfb8X3e7j6Y7vM2xVt8IdM5b83xJkmStKZY/YtVwOnc/JvMtEW0Hd+n7fiWHzHTFrf8iHPaju/TNl2IsGq0TdvNZt4i3mJqcJp5m24VMs283fKctyjez3zmM5KkE4hjsHQVxee/4YHxeaZtuuVHnOcfM23TLT+OZ9qmaIt+Wj3apu1m8RY7PC2bxhcSU4cRb/EF3jTe4k266667pNXcfffd0sUnPvEJHcRMg5YT4576RFCtoSHa4urRiLYvH0S0vXkwXYgQy6PHV48eL4+eLNiOtxvFW+zwNPMWy6YxdRjxFldaRLzFsunls03jL+M43qZbhUhLiW9IrSsOeLq5OA5eVTFQXgX0g+M5oB+E9ip+eIm/qxgrINqOrx6NaPuRgyna4okIU7RNy6PTzXXLD41fepum/WKnYufonLd8wcJ0q5Dr4i3CTZpbjjetgyJO18sRd5XkiDtXOeLUjmJxaXH8gmg7vnr0+Oa600xbXKRJy6Obirbj7TjeYodjx49n3vJ93uILj2XTd+It3px84Jd60OCo9RwPzGI0uF81NEifIwqDc0AzVnuUTxcI8fWlaJturhszbdN92o6vHs3Lo8fRtoklUtqOl01jPTemCKd4m855m642jXiblk0vH48V8TadGHiV5RMldbXFFU6aR1yxviWf/exnr6zHHnvsJOgqwnPyxBNPnJW4NdjSnnrqqRtK0fb1g2l59Pjq0Yi2ew4+enC8PLr5aJu2G8VbrPdGvMUXGDNvzx3EsmnEW8y8ffUDH/jA7xx+Mvnbg78//CT2D5I+/g+Hn/p0hg4/0Z/cPffcoxXcd9992p+/Dx/96EenaPvaQUw0RbTF8mhMQMVM23TLj4i24yci7Cbapm2Kt1gypZm3WDaNZ5tGrU63Crl8MP3BTx/8/MEvHnzryC9JkiQt5Lg5okF+4WCaaYsJpumWH9PVo8fRdvvBFG3Hj7HaTbjFdqN4i5m3OOctHo8VX/gUb9MFC185iBP/vnkQJwGGuIJDkiRpadEdEWwxkRQTStNjrKZoO756dJppmx5jFc0Ts227CrbjbYq3+CKmW4VMM29x5UV84RFvccHCqwffdxDTkLGG/NWDqNyIOEmSpKXFxQfRHtEg0SI/dhATS9M5bRFt0811YyLqRjNtu91i528Ub/Fg+mnZdDrn7QsHUbRRtjElGW9YPG1BkiRpabHyF+0Rk0jRInGPtriY8victrgQISagpnPadnUhQut2HG/Tsul0n7eYeYtl00cOnjmIoo3Zt7hwId6wtyRJklbwvQfRHjHDFsEWt/uIiaU4Lz9WCaeZtpiAmpZHzy7api3H23ST3ph5+9hBFGyU7KMHcXnt5w7izYrKDbGcKkmStISpN54/iImkWBaNYIul0fsPYqIpJpwi2mL1cIq26Juzi7ZpO463adn0fQexRjyd93bvQSyfRsQ9fBAhFz4rSZK0kKk3oj0i1mKGLYItZtniIoQ7DiLaznZ5lLYp3I7jLWbeYrox3ox4U2IK8uMHEXFx9Wm8YZO4gkOSJGlOx60RokGiRSLYYmVwWho9nmk7+2ibthxv0+1C4s2INyWWT+OEv5iFCxFz8aZJkiQtLboj+iNaJIItVganYLsyM215iy92Crh4A6bZt+nct3iDYiryWESdJEnSEnJ3RItEk4RolOkebVcu2o63HHDxpoR4gyYRc5IkSWs4bpCpS6Zgu9LRdrwdB9yxaTZOkiRpDblFpkZxu8k2vUmSJEmn5Obm5ubm5ubm5ubm5ubm5ubm5ubm5ubm5ubm5uZ2yu2f/JP/H2HZkLbHep9FAAAAAElFTkSuQmCC;" parent="1" vertex="1">
          <mxGeometry x="450" y="387.19" width="300" height="279.26" as="geometry" />
        </mxCell>
        <mxCell id="zy-CtgUMIQ0mxdJT6q3N-2" value="" style="shape=image;verticalLabelPosition=bottom;labelBackgroundColor=default;verticalAlign=top;aspect=fixed;imageAspect=0;image=data:image/png,iVBORw0KGgoAAAANSUhEUgAAAm4AAAJDCAYAAACympj7AAAAAXNSR0IArs4c6QAAAARnQU1BAACxjwv8YQUAAAAJcEhZcwAAFxEAABcRAcom8z8AAGGxSURBVHhe7d13tyXXeZh52xqTHAYAzABIJAIkACISQQAIECAgCMqRWaIiJVnByhIlWZYsywqW5Gx/H898kpk/Zs2aNfMh7pz3ggWdfvvp7v3uXVWn6tyn1vqtJgh0n7qnz6393L0r/BM3Nzc3Nzc3Nzc3Nzc3Nzc3Nzc3Nzc3Nzc3Nzc3ty1t/1SSJOkE3Fq2n/zJn/w/vvSlL11kh///Gj/xEz9xnR//8R9v8mM/9mPX+dEf/dFr/MiP/Aj64R/+YfRDP/RD1/jBH/xB9AM/8APX+f7v//5rfN/3fd913nrrLfS93/u913jzzTev8z3f8z3XeeONN9Drr79+jS9+8YvXee21167z6quvoi984QvXeOWVV67z8ssvX+fzn//8dV566aXrvPjii9d54YUXrvPd3/3d13n++eev89xzz13n2Wefvc7nPvc59PTTT1/jqaeeus6TTz55nSeeeAI9/vjj13jssceu89nPfhY9+uij13nkkUeu8fDDD1/nM5/5DPr0pz99jYceeug6n/rUp67zwAMPoPvvv/8699133zXuvffe69xzzz3ok5/85HU+8YlPXOPuu+++zl133YXuvPPO63z84x+/xsc+9rHrfPSjH0Uf+chHrvHhD3/4Oh/60Ieu88EPfvA6d9xxx3Vuv/3269x2223X+MAHPnBD73//+5vQ7+2V968Hfd096D3tQX9fVfQ56EWfsx7589uDvi960PddVf5evpnD3+v//E6iuKXtn0a0fe1rX7v4xje+cY2vf/3r14n/7thXv/pV9JWvfOU6X/7yl69zq1Cc9IbgjWJw6QikEKQADDkCW0OQgm/SE3059ia90UfBF3qjj4IvUPQ988wz17lV7E1OFX0twVeJPgq88OCDD16jNfpagq8SfS3BV4m+luALMXjkAYkGOxpEaYCmAMhRQcESKIhuhH5/r7x/Pejr7kHvaQ/6+6qiz0Gv/BnrRZ/hKvre6EHfdz3oezqL/Y7P2eGzH/HmLNzRdhltEWQRaj/1Uz91jRxy4VYhd7OYGwm31pm+lpALLTGXQ27SGnM53G4UbyPhRlpCjmIuh9ykNeZyuN0o3tYIN5qtu1XITVpjriXaRsKNoi20hlvLTF3IIXejmFs63CjaAh3UaTDIg0wevCZ5BoBCLtDAHnIwUIzkyKF4CjnOboZ+f4+8b73o6+6R389e9HdVNVdw0WesF32Gq/L3Ri/6vutB39NZvI/x+YjP2uHzH/H2z6JZLsvlCm7vrCMfguiaaPvpn/7pi29+85vviH/OWuKOYi5QzLXMyoUceDeKvJa4CznwKPJuFHe9MUezcqE38CjuQg68G0VeS8zdKOhaYo5m5UJv4FHchRx4oSXmcshNemOOZuVCb+BR3IXemMshN+mNOZqVC62B1xJzNwo6OtDnwYEGnkADGw2YeTAOeVYlUADkOJkGoIzC6kbo91fRfvWaK5YCva9V9PdVRZ+DHvQZ60Wf4ar8vdGLvu960Pf0sXitKcjjsxaf3UO8/W+HbvmugysXcPHFxhf9zw5R839GtE0xFr8eR9tIuB3PyB1ribkccreKuVOEG2mJuRxyN4u5NcKtZVYu9MZcJd7mDreWmbkccpPWmMvhdqN4mzvc8szcjWbnbhVyE4q5NcKtZVYu9MZcHPxpEKPBkQbfPKhTLAQKkWnQOR58SA6rm6Hf3yPvWy/6unvQe9oj/331oM9BD/qM9aLPcNVc0UXfdz3oe/pYvIfx2Zg+a/G5je+Bqxpv8YV+13G0hSnUfuZnfubiZ3/2Zy9+7ud+rkn8t/F7eh1HYtVxTB5rCcuQo5LcKjIrKEgDBWnIs4sUqa1yzE5aYjbkoG1F4XsjPSF8IxTIIccxzXQGiuZbyVFdRQEeeiP8ZiF+jKI8UJhnOdQr8uzszSI/y9E/ofjP8g8DN9PyA0IY+SHhFPK+nVq8X/S+6m35c3gVxA97xtvb2+Vs22HAxmgLEWK/8Au/cPGLv/iLTeK/7fXzP//zGIOtYl97UUS2OH6vqo7jskcO0goK11Y5Zlvl6K2i+G11syC+FQrmFhTMrXJQV+UAr6BQb0Gh3orCvSJHfgX9QNCKfkhoQT80SGLxA2WsVES8xUzhTeLtnx9EwEXbnGXAXUbbYYBpirZf+qVfuvgX/+Jf3NKv/MqvdPvlX/7lIbGPvb71rW91yeFakcO14qpFbjiO1iqK11YUry1yuFZQuFZQvLbKM8CtcrhWULxWULy2onhtRQHbguJVEosZt5gZjlNK4tSLWC6meLv99tsj3v6XaJvvOKt4m6Lt8kKEaXCLwXEaYGOAjjiIwIgo+oM/+IOLf/2v/3WTP/3TP+32r/7Vv+r2J3/yJ13++I//uNsf/dEfdfv2t7895A//8A+7xd9nj9/7vd8b8ru/+7vdfud3fqfbb//2b3f5rd/6rSG/+Zu/2e1f/st/2e03fuM3uv36r/96l1/7tV/r9qu/+qtD6IfIVvRDZKuRHxjpB0FJ14ofgiPcYgl9irc4n7Yh3qal07PYLqcQI9riDcnRFsEWMzIxq3McbX/1V3918V/+y3+5+K//9b/eUPz7Uf/5P//nLv/pP/2nbv/xP/7HIf/wD//Q7e///u+7/d3f/V23f//v/32Xv/3bvx3yN3/zN93++q//ult8fnv8u3/374b85V/+Zbd/+2//bbe/+Iu/6PZv/s2/6fZnf/Zn3eiHwFb0Q2AF/SDYin4YbEE/CEq6VpwKEeexHsdbLJtGvMXFI8fxFmDmbffbDZdHp2gLFG3//b//94v/8T/+x+WvN/Lf/tt/G0Ix2GIk+ALFXCsKuVb/4T/8h24UgRUUgi0oAltRCLaiCKygEGxBEdgqR2AFRWAFxVwrirkWFHKt/vzP/3wIhWArCsFWFIEtKAAlXS/OCY2Lo3K8xe2X4py3uHq4Id52u2T6TrTdaKYtlkZvFm0RSRQ+EwqbViMhQ2FSQYHSigKlFQVKK4qTCoqUFhQorXKcVFCcVNCMVgsKm1YjMUNxUkGB0ooCpQUFSis6YFfQjFYr+im/FZ0C0YJOfZB0rVgqjSvs4yp5ire4LVPcKmSaeTsOuKN4iyXTsLttlmiLwIpBnwbGQANfKxr4WuWf/Kto4GxFg2YrGjQraPBsRYNni5FBkga+ChoAW9FBoQWdH9gqvod6/f7v//4QOr+wFZ1f2ILOLWxF5xdW0PmFrUbOJ6RzBFvQOYKSrhUX8sRVpS3xNt0q5Cbxtqtl06Zoi2BribYY9GmgCDQItKKBoBUNBBU0ELSigaBVPhm9FQ0gFTSQtKJvrlZ0UnoFnZTeik5KbzGdgN6DTkhvlU/QrZq+n3vED3A94jjSK1/1XDWd5tEjjoO94jjaYzoOS2Jxdfx0y52WeItz3m4Rb7tZNp11pi2iLUKJBlEa9CpGBshAg18rGvgq8sBXkQe/Vnngq6CBr1Ue9KrywFeRB79WxweDKro9SEV83/U6vj1IVb49SAXdIqQF3SKkgu6h1+pwjOtGtwhpRbcIaZVvESLpH8U9FiPaWuMtnlwTtwrZc7zFTi0WbRE7cwXIJMdFFUVGqxwXFTkuWuW4qDqOiyoKjFY5LiooMFpRYLSiyGhFgdGKAqNVjosqutdZC4qTVhQnrejAXUH3fmqVb+bbKt/ItyIGIkk3Fjepnv53S7zFrFtcbRqP52tcNt1UvF0G28F3HQ7gi0QbhVIOmqocNhU5aqqOo6aK4qZFjpoKCpsKiptWFDetKG5aUdy0ylFTQXHTiuKmFcVNBcVNCwqbVhQ3rShuKqYnGfSYBoeq40enVcUARI9Wk/S2+B6J75Xp+236Xm2Jt4ceeuidq01vMvMWAbeJeJtm2m4YbVNoGW1vO46wKgqyVjnGKijGKijIWlGQtaIga0VB1irHWAUFWSsKslYUYxUUZS0oyFpRkLWiGKvIMVYxDQxVOcYqDDfp1nrjLW4Vcot4+98PnbSZZdN3oi0G6CkwIlAiciKS5o62kEOsKsdYRQ6xquMQq6Iga0VB1iqHWBUFWSsKslYUZC0oxipyjFVQkLWiIGtFMVZBUdaCgqwVBVkrirGKHGMV06BQlWOswnCT2ozEW9znbXrCwk1m3k4ab/HC+MD4CJwIpLmXRyc5xKpyjFXkEKs6DrEqCrJWFGStcohVUZC1oiBrRVHWgmKsgoKsFQVZqxxjFRRjFRRlLSjIWlGQtaIYq8gxVjENCFU5xioMN6ldT7zFBQv58Vhbi7dbRlsE1tZm2kIOsaocYlXHIVZFQdaKgqxVDrEqCrJWFGStKMpaUIxVUJC1oiBrlWOsgmKsFQVZKwqyVhRkrSjGKnKMVUyDQVWOsQrDTarpjbeYeYt4u+uuuzYTb/EiJ4m2kCOsRw6xihxhPY5DrIqCrBUFWascYlUUZK0oyFpQkLWiGKugIGtFQdYqx1gFBVkrCrJWFGStKMhaUYxV5BhrNQ0CPXKMVRhuUl1vvMXM24MPPnhx5513biLedh1tIcdYRY6wiuMA60VB1oqCrEWOsB4UZC0oyFpRkLWiGKugIGtFQdYqx1gFBVkrCrJWFGStKMhaUYxV5CBrNQ0APXKMVRhuUp/eeJseTN9wn7dFrza9abTFrxFG5xpt4TjEqo4DrAfFWCsKslY5wiooxiooyFpRkLWiGKugIGtFQdYqx1grirEKCrJWFGStKMhaUYxV5CBrNR38e+QYqzDcpH698RbLpnGT3lPdKuS6aIsgiF8jSiJqIrCWiLZAEdYjh1hVjrGK4wjrkWOsgoKsVY6xCoqxCgqyVhRkrSjGKijIWlGQtcpB1opirIKCrBUFWSsKslYUYxU5yFpNB/4eOcYqDDdpzEi8xdWmaz9h4Z1oi8E0BvOIgYiJCJIImoirLUdbDrAeOcSqcohV5RiryDFWQUHWKodYFQVZKwqyVhRjFRRkLSjGWuUYq6AYq6Aga0VB1oqCrBXFWIscYlXTQb9HjrEKw00a1xtvIc55W+tq08to+8IXvvCt2MEYECMEIiSmIIm4OveZtnAcYVU5wnrkGKugIGtFQdaKYqwix1gFBVkrirEKirIWFGStKMhaUYxVUJC1oiBrRUHWgoKs1XGE9ZgO+D1yjFUYbtI8RuItZt7yBQsRbu973/su3vve937r0FvDj8eK3xi+6xBuvxQ7EjsUOx4H+wiCiKuloi1QhPWgEKuiIGtFIVaVY6yCgqwVBVkrirEKCrJWFGStKMYqKMpaUJC1yjFWQTFWQUHWioKsFUVZCwqyVjnEqqaDfY8cYxWGmzSf3niLZdPpatMPfvCDF7fddtvF+9///oi2i3e/+92/cuitdx3EzFtXuF3OtH3HP3/llVd+eQq32Klpx2OQi8CKaPv93//9zc20BYqwKoqxCgqxVhRiVRRkrSjIWlGMVVCQtcoxVkEx1oJirIKCrBUFWSuKsQoKslYUZK0oylpQkLXKIVY1Heh75BirMNykefXE23G4RbSlcPu1Q2+97yDiretihSnc4je/5/Of//yvUrhNOxuD1m/8xm9sLtoChVgVxVgFBVkrCrEKirFWFGMVFGMVFGStKMha5BiroBiroCBrRUHWimKsgoKsFQVZCwqyVhRkrY4jrMd0kO+RY6zCcJPm1xpvEW6PP/74xWc+85nLq0xvEG6/ceitOw7+14PylabH0fbPD9730ksv/fpxuL311luXOz3taBy8Y7D81re+dfHHf/zHF3/3d393NtEWKMZaUYxVUIxVUJC1ohhrRSFWkUOsgoKsFQVZK4qxCgqyVhRkrXKIVVGQtaIoa0FB1oqCrNVxhPWYDvA9coxVGG7SMm4Ub/HvvvjFL14c+unic5/73MVnP/vZm4bbu971rt8+9NZHDt5/UJ51m8Itiu/dB7e9+OKLv/nqq69evP766xdvvvnmDcMtQiXiLCItgu23fuu3ThZtgSKsKodYFcVYBcVYBQVZKwqyVhRjFTnGKijIWlGQtaIYq6Aga0VB1iqHWBUFWQsKslYUZK0oyFodR1iP6eDeI8dYK6NNWtZxvMX/jkmuL3zhCxef//znL777u7+7Ndx+79Bbdx7ErNt7DmLiLFqsaYtwm2bbYsrug4cX/p1quMXsW1y0EBcv7DXaQg6xKoqxVhRiVRRkrSjIWlGMVeQYq6Aga0VB1opirIKCrBUFWascYlUUZS0oyFpRkLWiIGuVQ6zqOMSqcpC1Mtyk5cX3WbTR93zP91zOtHWE27cPvXXPwYcP3nsQDdY86xb/0TTbFifKfeTwwr87Em5rxdqEAqwqB1gPirEKCrEKirEKCrJWFGMVOcYqKMhaUZC1ohiroCBrRUHWKodYK4qxCgqyVhRkrSjIWuUQq8oxVkFR1sJwk9YRp5INhNufHHrrUwcfO4jl0miwpitMj5dJY6oufvPHn3vuuT+YM9wotuZCEdYjR1gPirEKirEKirFWFGMVFGMVOcYqKMhaUZC1ohiroCBrRUHWIsdYBcVYBQVZKwqyVhRkrXKIVeUYa0VB1spwk9YxGG5/euitTx/cdfCBg+5wi9985zPPPPOHsRMRbrFT05WlcUCJg1EcxGPAjFi5WbhRaM2NIqwqB1gvirFWFGJVFGStKMZaUYi1yhHWg4KsFQVZCwqxCoqxVhRkrXKMVVCMVVCQtaIga0VB1iqHWFUOslYUZK0MN2kdg+H2Z4feevjg7oPbDqLBusItfvNdI+EW/0yBNTcKsF45wHpQjFVQiLWiEKuiIGtFQdYqR1gVxVgrCrJWFGMVFGStKMha5RiroBiroCBrRUHWioKsVQ6xihxjFRRkrQw3aR2D4fbnh96KcPvEwe0HzRcozBJu+cIECq05UXz1ygHWi2KsgoKsFYVYFQVZKwqyVjnEqijIWlGQtaIYq6Aga0VB1irHWAXFWAUFWSsKshYUYxU5xipyjFVQkLUy3KR1zBBujxxM4RYXh3aH292HF/32zcItDsIx8EVwxJLomuFG8TWCIqwqR1gVxVgFhVgFxVgFBVkrirGKHGMVFGStKMYqKMhaUZC1oiBrlUOsioKsFUVZC4qxVjnEqnKMVVCQtTLcpHX0hNsHPvCB43B79OCTB+uHW0Sb4daPYqyCYqyCYqyCgqwVxVhFjrEKCrJWFGMVFGStKMhaUZC1yiFWRUHWiqKsBQVZqxxiVTnGKijIWhlu0jo2GW6xM1O4xZWlcVCIA1IchGPgi+hYM9wovEZQhPXIIVZFMVZBMVZBMdaKYqyCYqwix1gFBVkrirEKCrJWFGStKMha5RCroiBrQUHWioKsVQ6xKgqyVjnGKgw3aR2bDrfpliBxUIgDUhyEY+CL6Fgr3Ci8RlCAVeUA60EhVkEhVkVB1opirBWFWFWOsQoKslYUYxUUZK0oyFpRkLXKIdaKYqyCgqwVBVmrHGJVFGStcoxVGG7SOgy3m6DwGkUhVpUjrAfFWAWFWAXFWAUFWSsKsYocYhUUY60oxFpRiFVRkLWgGGuVY6yCYqyCgqwVBVmrHGJVFGStcoxVGG7SOgw3QME1B4qwqhxgvSjGWlGIVVGMVVCQtaIYq8gxVkFB1oqCrBWFWAUFWSsKslY5xiooxiooyFpRkLXKIVZFQdYqx1gro01aj+GWUHCNogDrlQOsB8VYBYVYFcVYK4qxCoqxihxjFRRkrSjIWlGMVVCQtaIga5VjrIJirIKCrBUFWascYlUUZK1ykLUy3KT1bCrcnnrqqXfCLZ56HzsWOxgHhjggxcE4Br+Ij7nDjYJrDhRfvXKA9aIYq6AQa0UhVkUx1opCrCrHWAUFWSsKslYUYxUUZK0oyFrlGKugGKugIGtFQdYqh1gVBVmLHGMVhpu0ns2F2yuvvHLx2muvrRpuFFxzoQDrkeOrB0VYFcVYBYVYFQVZKwqxVjnCelCQtaIga0UxVkFB1oqCrFWOsQqKsQoKslYUZK1yiLWiGKvIMVZhuEnrubLhRpE1NwqwXjnCelCIVVGMVVCIVVCMVVCQtcoRVkUx1opirBWFWBUFWSsKslY5xiooxlpRjLWiGGuVY6yCYqwix1iF4Sat50qGG0XW3Ci+euUA60ERVkUhVkEhVkUxVkFB1iqHWBUFWSsKslYUYlUUZC0oxlrlEKugGKugIGtFQdYqx1gFxVhFjrEKw01az5UKNwqsJVB8jcgR1oNCrIpirIJCrIpirBXFWEUOsSoKslYUZK0oxFpRjFVQkLXKMVZBMVZBQdaKgqxVjrEKirGKHGMVhpu0ns2F28svv3zx6quvXj72KuItriyNg0IcmOKAHANghEhruFFYLYWia0SOr14UYT0oxiooxFpRiFVRjLXKEdaDgqwVBVkrCrJWFGMVFGStcoxVUIxVUJC1oiBrlWOsgmKsgoKsleEmrcdwmxHF14gcYL0ownpQjFVQkLWiEKuiIGuVI6wHBVkrCrJWFGStKMYqKMha5RiroBiroCBrRUHWKsdYBcVYBQVZK8NNWs/ZhFv88ylibULhNSLH1wiKsCoKsQqKsQoKsSoKslY5wiooxKooyFpRkLWiGKugIGuVY6yCYqyCgqwVBVmrHGMVFGMVFGQt4vhsuEnr2VW4xQE1BrEIiQi0HG4UVGug8BpB8dUrB1gvirEKirEKCrEKirEKCrJWOcKqKMZaUYxVUIxVUJC1oiBrlUOsioKsFQVZqxxjFRRjFRRlLYw2aV27Cbc4sMQBNQayCIkItwi2aZn0VOFG4TWKAqxHjq8eFGFVFGIVFGJVFGOtKMYqcohVUZC1ohhrRSFWRUHWioKsVQ6xKgqyFhRjFRRkrXKIVVCQtTLcpHVVwu32229fNtyeeOIJDLfY0Ti4xAE1BrIIii2EG0XXKAqwXjnCelCIVVGMVVCIVVGQtaIYq8ghVkVB1oqCrBWFWAXFWCuKsVY5wiooxiooxlpRjLXKIVZFQdbKcJPWtclwix2JHYp421q4UWzNheKrVw6wHhRhPSjGKijEKijGKijGWuUI60FB1oqCrBXFWAUFWSsKslY5xiooxiooyFpRkLXKIVZFQdbKcJPWZbgVUGzNheJrRI6wHhRhVRRiFRRiVRRjFRRkrXKEVVGMtaIYq6AYq6Aga0VB1irHWAXFWAUFWSsKslY5xKooyFoZbtK6DLdGFFtzoOgakeOrF0VYD4qxCgqxKoqxVhRjFTnEqijIWlGMVVCMVVCQtaIga5VjrIJirIKCrBUFWascYlUUZK0MN2ldhtstUGzNieKrV46vERRhFRRhVRRhFRRiVRRjrXKE9aAga0Ux1opCrBWFWBUFWascYxUUYxUUZK0oyFrlEKuiIGtluEnr2ly4xQ5Mj72KcIudix2Ng0scWGMwi7BYI9wotOZE8TUix1cvCrEqCrEqirEKCrEqCrJWOcIqKMSqKMhaUZC1ohCroBhrlUOsgkKsFYVYFQVZqxxiVRRkt2KwSadhuCUUWEug8BqR46sXRVgVRVgPirEKCrEKirGKHGMVFGIVFGMVFGStKMYqKMha5RiroCBrRSFWQTHWKkdYBQVZK8NNOg3D7TsorpZC4TUix9cICrEqirAqCrEKCrEqirFWOcSqKMYqKMYqKMhaUYxVUJC1yjFWQUHWimKsgoKsVY6xCgqyVoabdBqG23dQYC2F4mtEjq8RFGJVFGJVFGMVFGJVFGStcohVUYxVUIxVUJC1ohiroCBrlWOsgoKsFcVYBQVZqxxjFRRkrQw36TSudLhRVC2NwmtEDq9eFGA9KMJ6UIxVUIhVUZC1yiFWRTFWQTHWimKsgmKsgoKsVY6xCgqyVhRjFRRkrXKMVVCQtTLcpNPYfLjF0xNiR+MgEwfXGNQiNEbCjYJqDRReo3KA9aII60ERVkUhVkERVkEhVpVDrIJCrIqCrBXFWCsKsVYUYlU5xiooyFpRjFVQkLXKMVZBQdbKcJNOY3Ph9tJLL12GWzz2KnZqrnCjkFoDxdZccnz1ogDrQRHWg2KsgmKsgkKsIodYFYVYKwqxKgqyVhRkrSjEKnKIVVCMVVCMVVCQtcoxVkFB1spwk07jbMONImptFFtzyOE1ggKsF0VYBUVYD4qxVhRiVTnEqijIWlGIVVGQtaIga0UxVpFjrIJirBWFWBUFWascYxUUZK0MN+k0zibcthJrEwquOeTwGkUB1oNCrIoirIpirIJCrCqHWAXFWAWFWAXFWAUFWSuKsYocYxUUZK0oxCooxlrlEKugGGtltEmns5twi4NFHCRjcIpQiFCLYDuebaOAOgUKrjlQeI3I8dWLIqyKIqwHxVgFhVgFxVhFDrEKCrEqirFWFGMVFGMVFGStcoxVUIxVUJC1oiBrlWOswnCTTmfT4RYXKES4vfXWW5cHizhIxgAVsbC1cKPQmhOF14gcXyMoxKoowqooxCooxKooxipyjFVQiFVRkLWiGGtFIVZBMVaRY6yCYqyCgqwVBVmrHGMVhpt0OpsKt8cee+zbL7744kU8r3RP4UahNScKr1E5vnpQgPWgCOtBMVZBIVZFMdYqh1gVhVgFxVgFBVkrirEKirFWOcSqKMYqKMhaUZC1yjFWYbhJp2O4DaLQmgsF1xxygPWiCOtBEVZBEVZFEVZBIVaVQ6yKYqyCYqyCgqwVxVgFBVmrHGIVFGJVFGStKMha5RirMNyk0zHcOlFozYmCa1QOrxEUYD0oxKooxKooxiooxKpyiFVQiFVRjLWiGKugGKugIGuVY6yCQqwVhVgFxVirHGIVRpt0WoZbAQXWEii6RuXwGkEB1otCrIIirAfFWAWFWEUOsSoKsSoKslYUY60oxFpRiFXlGKugIGtFMVZBQdYqx1iF4Sad1ibDLXYidibibQvhRnG1FIquUTm8RlGA9aAQq6IIq6IQq6AQq8ohVkUh1opCrIqCrBUFWSsKsYocYlUUZK0oxiooyFrlGKsw3KTTagm3T33qU4bbWii8RuXwGkUR1oNCrIpCrIpirIJCrCqHWBUFWSsKsSoKslYUZK0oxipyiFVRkLWiGKugIGuVY6zCcJNOy3C7CQqrJVF0zSGH1wgKsF4UYhUUYT0oxiooxKpyiFVQjFVQiFVQjFVQkLWiGKvIIVZBMVZBMVZBQdYqx1iF4SadluGWUFCtgYJrDjm8RlB89aIQq6IIq6IQq6AIq8gR1oNirIJirIJirBXFWAXFWEWOsQqKsVYUYlUUZK1yjFUYbtJpGW7fQTG1BoqtueTwGkUBVkUB1oMirAfFWAXFWEWOsB4UY60oxKooyFpRjLWiEKvKMVZBQdaKQqyCYqxVDrEKo006vSsbbhRRa6PYmkuOrlEUYT0ownpQhFVQhFVRiFXkAOtBMVZBIVZBMVZBQdaKQqwih1gVBVkrirEKCrJWOcYqDDfp9DYXbi+88MLF9Nir2KHXX399tnCjeDoFCq255OAaRfHViwKsB4VYFYVYFcVYRY6wHhRjFRRjFRRjFRRkrSjGKnKIVVCMVVCMVVCQtcoxVmG4Sad31uFG0XRqFFtzydE1iuJrBEVYDwqxCoqwHhRjFTnCqijEKijEqijGWlGMVVCMVeQYq6AYq6AYq6Aga5VjrMJwk05vF+EWOxkHjThgxoAVUXEcbj/7sz+72VA7RrE1lxxdc6D46kUB1oNCrIoirIpCrCJHWA+KsQoKsSoKslYUY60oxKpyjFVQjLWiEGtFIVaVY6zCcJNOb/PhFjsWOxkHjDjoxYATIRChFjNtYcvhRpE1N4quUTm8RlCA9aIQq6AI60ExVkEhVpVDrIpCrBWFWBUFWSsKsVYUYlU5xiooyFpRiFVQjLUy2qRt2Fy4xYvHBQrx2KuItz2HG0XW3Ci6RuXwGkUBVkUR1oMirIpCrIIirCIHWA+KsQoKsQqKsQoKslYUYhU5xKooyFpRjFVQkLUy3KRtMNwWQIG1BIquUTm6RlGEVVGA9aAI60ExVkExVpEjrAfFWAXFWAXFWCuKsQqKsYocYlUUZK0oxiooyFoZbtI2GG4zobBaCgXXqBxcoyjAelGE9aAIq6AI60ExVpEjrAfFWCsKsSoKslYUYxUUYxU5xCooxiooxiooyFoZbtI2GG4zocBaCoXXqBxeoyjAelGE9aAYq6AI60ExVpEjrAcFWSsKsSoKslYUYxUUYxU5xiooxiooxiooyFoZbtI2GG4zoLhaCkXXHHJ4jaIA60EB1oNCrIoirIpCrCIHWA+KsQoKsVYUYlUUY60oxKpyjFVQjLWiEGtFIVYRx1/DTdqGXYTbm2++uclwo7BaEgXXHHJ0jaIA60UR1oNCrIIirAfFWEWOsB4UY60oxiooxKooyFpRiLXKEdaDgqwVBVkrirEKGjwkncbmwu3555+/DLfYkYi31157bVPhRkG1BgquOeToGkXx1YsCrAeFWBVFWBWFWEUOsB4UYxUUYxUUYhUUYxUUZK1yhPWgIGtFQdaKYqyCBg9Jp2G4NaKYWhqF1pxydI2i+OpFAdaLQqyCIqwHxVhFjrAeFGMVFGOtKMSqKMZaUYxV5AirohhrRTFWQTFWQYOHpNMw3G6CYmotFFpzytE1BwqwXhRgVRRhPSjCKijCqnKA9aIYa0UxVkEhVkVB1opirFWOsB4UZK0oxlpRiFXR4CHpNAy3IxRQp0ChNaccXHOg+OpFEVZFAdaDQqyKQqwqB1gVhVgVxVgFhVgFxVgFBVmrHGE9KMhaUZC1ohBrFcddGjgknc6VDjeKplOiyJpTjq25UHz1oADrRRHWg0KsgiKsRw6xKgqxKoqxVhRiVRRjrSjGKnKEVVGMVVCQtaIga2W4SduzyXCbnle6RLhRMG0BhdaccmzNgeJrBAVYDwqwHhRiVRRhVTnCqijCqijGKijEqijIWlGMVeQQq6IYa0UxVkFB1spwk7bnrMONAmlrKLLmloNrDhReIyjAelGE9aAQq6AI65FDrIpCrIpirIJCrBWFWBXFWKscYT0oyFpRjLWiGKsw3KTtObtwozjaIgqsJeTgmgOF1wiKr14UYFUUYT0owqpyhFVRhFVQhFVRjFVQiFVRkLXKEdaDgqwVBVkrirFWccw13KTt2U24xc7GQSwGkxjsI9KmaPuZn/kZZ9gARdcccniNoPjqRRHWgyKsiiKsB8VYRQ6xKgqxKoqxCgqxCoqxCgqxVjnCelCQtaIga2W0Sdu0uXB77rnnLndgCrdXX331cgdjZ+MgFoNJDPgRahFthtuNUXTNIcfXCAqwXhRhPSjEqijCelCMVeQQq6IQq6IYq6AYq6AYq6Aga5UjrAcFWSsKslaGm7RNmw236crScwo3iqulUHDNIYfXKAqwXhRhVRRhPSjCKijCeuQQq6IQq6IYa0UhVkUx1opirCJHWBXFWAUFWSvDTdomw21hFFVLodCaU46uURRfPSjAelCA9aAQq6IIq8oRVkURVkUxVkEhVkVB1opirCKHWBXFWCuKsQrDTdomw20hFFZLotCaU46uURRgPSjAelGE9aAQq6AI65FDrIpCrIpirIJCrBWFWBXFWKscYT0oyFpRjLUy2qTtMtxmREG1BgqtueTgGkXxNYICrAcFWA8KsSqKsKocYVUUYVUUYhUUYxUUYhUUYxU5wiooxKooyFoZbtJ2GW4zoJhaC8XWXHJ0zYHiqxcFWC+KsB4UYhUUYT1yiFVRiFVRjFVQjLWiEKuiGKvIMVZBIVZFQdbKcJO2a3Ph9uyzz15Mj72KK0u3HG4UUmugyJpbDq45UHz1ovjqRQFWRRHWgyKsIgdYLwqxKoqxVhRjFRRiVRRjrXKIVVGIVVCMVRhu0nYZbgUUUWujyJpbDq45UHyNoADrQRHWgyKsikKsKgdYD4qwCgqxKoqxCgqxCoqxihxiVRRjFRRjrYw2adsMtwYUUKdAkTW3HFxzoPAaQQHWiyKsiiKsB4VYRQ6wXhRjFRRiVRRjrSjEqijGKnKIVVCIVVGQtTLcpG0z3ABF0ylRYM0tx9ZcKLxGUHz1oADrQQHWg0KsKgdYDwqxCoqwKoqxCgqxKoqxVjnEqijEKijGKgw3ads2F27PPPPMO+EWYqeWDjeKpS2gwFpCjq05UHSNoPjqRQHWiyKsB4VYRQ6wXhRjFRRiVRRjFRRirSjEqnKIVVGMVVCMtYpoM9ykbdtkuMWVpfG80iXCjQJpayiulpKDaw4UXqMowHpRgPWgAKuiCOuRA6wHhVgFRVgFRVgVxVgFhVhVDrEKCrEqCrJWRpu0fYbbBlFgLSVH1xwovEZRgPWiCOtBIVZFEdYjR1gPirEKirEKCrEqirEKCrGqHGMVFGJVFGStDDdp+3YZbjGQR4TdLNwoiPaA4moJFFxzydE1iuKrFwVYLwqxKoqwHjnCelCMVVCMVVCIVVGMVVCIVeQQq6IQa0UhVmW4Sdu3i3B74403Lnc2DmwxwMRgHnEWwRa++c1v7jrWAsXVUii25pKjaxTFVy+Kr14UYVUUYD1ygFVRhPWgGKugEKuiGGtFIVaVQ6yKgqwVhViV4SZt3+bD7ZVXXrkMt7feeuvy4BQDRAzo5xBuFFVLotCaU46uURRfIyjAelCE9aAIq6IQq8oB1oNCrIIirIpirIJCrIpirFUOsSoKsQoaICRtz6bC7dFHH30n3GInIt7OMdwoqpZGoTWnHF2jKLxGUID1ogirogjrQSFWkQOsF8VYBYVYFcVYBYVYKwqxqhxiVRRjFTRASNoew21FFFRroNCaU46uOVB89aL46kEB1oMCrAeFWFUOsB4UYhUUYVUUYhUUYxUUYlU5xCooxKpogJC0PYbbwiik1kKRNaccW3Oh+OpB8dWLAqwXRVgPCrGKHGC9KMYqKMSqKMYqKMYqKMQqcohVUYi18rw2aV8Mt4VQSK2JQmtOObbmQPE1ggKsFwVYDwqwKoqwHjnAelCIVVGIVVGMtaIQq6AQq8ohVkVB1spwk/Zls+EWT0+IHXn55Zd3E24UUGujyJpbDq45UHiNoPjqRQHWi0KsiiKsKgdYLwqxCoqwCgqxKoqxCgqxqhxiFRRjFYabtC+bC7d44el5pXsIN4qnU6DAWkIOrjlQeI2g+OpF8dWLIqyKIqxHDrAqirAeFGMVFGJVFGMVFGIVOcSqKMZaGW3S/hhunSieToUCa245tuZC4TWC4msEBVgVBVgvirCqHGE9KMKqKMQqKMKqKMQqKMSqcohVUZC1Mtyk/THcGlEwnRoF1txyaM2JwmsUxVcvirAeFGA9KMJ65AirogjrQTFWQSFWRTFWQSFWlUOsgmKswnCT9sdwa0ThdGoUWnPLsTUnCq9RFGC9KMJ6UIT1oAjrkUOsiiKsB8VYBYVYFcVYBYVYVY6xCoqxVhFthpu0P5sMt7hAYQvhRrG0BRRYS8ihNSeKrlEUXz0ovnpRgPWiCKvKEdaDIqyKQqyCIqyKQqyCIqwiR1gPCrJWRpu0T5sLt6effvoy3KZbgqwVbhRIW0NxtZQcWnOh4BpF8TWCAqwHxVcvirAeOcKqKMJ6UIxVUIhVUYxVUIxV5AjrQUHWynCT9unKhRsF0dZRWC0px9ZcKLpGUXiNoADrRQHWgwKsKgdYL4qwCoqwHhRiVRRjFRRjrXKA9aAYqzDcpH3aRbi9/vrr5XCjANobiqql5diaC0XXKAqvERRfvSjAelGIVeUA60EhVkURVkURVkERVkUxVpEjrAfFWCujTdqv3YRb7GgccOLgH4N2xFkEW/jpn/7ps4m1QEG1JAqtOeXgmgvFVy+Kr14UX70owqoownrkCKuiCOtBMVZBIVZFMVZBIVaRQ6zKcJP2y3DbEIqqpVFozSnH1lwovkZQgPWiAOtFIVZFEVaVI6wHRVgVhVgFRVgVhVgFhVhVDrEqw03ar82F21NPPXX54tMtQWKHzjncKKbWQqE1lxxac6LwGkHx1YviqwcFWA+KsB45wqoownpQjFVQiFVRjFVQiFXlEKsw2qR9M9xOhEJqLRRac8qhNScKrxEUXz0ovnpRgPWgAKvKAdaLIqyKQqyCIqwHxVgFhVirHGE9DDdp3wy3lVFIrYUia245tOZC0TWC4msEBVgvirAeFGJVOcB6UIT1oBiroAiroAirohiryBHWw3CT9s1wWwFF1JoosJaQY2suFF4jKLxGUHz1ogDrQRFWlQOsF0VYBUVYD4qxCgqxKoqxihxhVRFthpu0b5sKt8OLXRNucYHCXsONAuoUKLCWkGNrLhReoyi+elF89aIA60UhVpUDrAeFWBVFWBWFWAVFWBWFWEWOsB40CEjal82F25NPPnkRV5YabvOgyFpCDq65UHiNogDrRQHWiwKsF4VYVY6wHhRiVRRiVRRjFRRiVRRjFTnCetAgIGlfDLeZUDSdGgXWEnJszYWiaxTFVy+KrxEUYFUUYD1ygPWiEKugCOtBMVZBIVZFMVaRI6zCJVLpfBhugyiYTonCaik5tOZE0TWK4msExVcvirAeFGE9coD1oBCrogirohCrohCrohhrlUOsymiTzofhVkChtBUUVkvJkTU3iq5RFF4jKL56UHz1ogDrkQOsF4VYBUVYDwqxCoqwKoqxihxiVYabdD42FW4PPfTQ5sKNImlrKK6WkiNrThRcc6DwGkEB1osCrAcFWI8cXz0ownpQhFVQhPWgEKuiGKvIIVZluEnnY7PhFo+9inh76aWXVgs3iqIto7BaUg6tOVFwjaLomgMFWA8KsF4UYT1yhPWgCKuiEKuiCKuiCKugCKvKEVZltEnn5UqGG0XQXlBQrSGH1pwouuZA0TWC4qsXxVcvCrAeOcB6UIT1oBCroAjrQTFWQSFWlUOsynCTzsvZhhtFz55RTC0tB9YSKLjmQOE1guJrBAVYDwqwXjnCelCEVVGIVVGEVVGIVVCEVeUIqzLapPOz+XB78cUXL3fuzTffvDwIxYE9BuaIswi28FM/9VPG2swosuaWY2suFF4jKLxGUID1ogCrogDrkQOsF4VYBUVYD4qxCgqxKoqxCsNNOj+bC7cnnnjiYnp6QsTbVQw3Cqk1UWTNLcfWXCi8RlB4jaD46kURVkUB1isHWBVFWA+KsCoKsSoKsSqKsQrDTTo/htuGUEStheJqCTm05kThNYLCawTFVw8KsF4UYD1yhPWgCKuiCOtBIVZBEVZBEVZltEnnyXA7MYqotVFgLSGH1lwouuZA8TWCIqwHBVgPCrAeOcB6UIT1oAiroAjrQTFWQSFWZbhJ58lwOzEKqbVRZC0hB9dcKLrmQPE1giKsB0VYD4qwHjnCelCE9aAYq6AI60ExVkEhVhHHSsNNOk+G24lQQK2N4moJObTmRME1iqJrBMVXLwqwXhRhPXKE9aAIq6IQq6IIq6IQq6AQqzLapPO1+XB74YUXLl577bWzCDeKp1OhwFpCDq05UXSNovAaQfHVi+KrFwVYjxxgPSjCelCIVVGIVVGMVVCItZpm2gw36XxtMtymW4LETuw93CiaToXCaik5suZG0TWKwmsExdcICrAeFGC9coT1oAirogirogirohCroBirMNik82e4LYCi6dQorpaSI2tuFF2jKLxGUXz1ogDrRQFWleOrF0VYDwqxKgqxKoqxCoqxCsNNOn+G2wwolLaCwmpJObLmRtE1iqJrFMVXL4qvXhRhVTm+RlCEVVCA9aAIq6AI60ExVmG4SefPcCuiONoiiqol5cCaGwXXHCi6RlF89aL46kEB1ivHVy8KsSqKsB4UYxUUYVUUYhVGm3Q1GG4NKIy2iIJqDTmy5kbBNRcKrxEUXyMownpQgPXI8dWLIqyKAqwHhVgFRVgPirEKw026GjYXbo8//vhFxFtcWRrxtma4UQztBQXV0nJgLYFiaw4UXSMoukZQfPWiAOuVA6wXhVgVRVgPirEKirAqCrEKo026OqrhFnYfbhQ+e0VBtbQcV0uh4JoDhdcoiq9eFF+9KL565fjqQQHWgwKsB4VYFYVYFcVYheEmXR1nF24UN+eGYmotOa6WQLE1F4quURRfIyjAelGA9cgB1osirAdFWA8KsQqKsCoKsSrDTbo6dhducdCOATgibQq3b3zjG1ci3Cik1kKBNbccWXOj6BpF4TWC4qsXBVgvirCqHF+9KMB6UIhVUYhVUYhVxHHRcJOujs2F22OPPXZNuMXOvPrqqxhuMdMWItyuwmwbBdVaKLTmlkNrbhReoyi+RlCA9aIA60UhVpUDrBdFWA8KsSoKsSqKsQqjTbpaNhluMetmuP0jCqm1UGAtIUfW3Ci6RlF4jaD46kXx1YMCrEeOrxEUYRUUYD0owioowqqcbZOuntZwu+uuuwy3tVBAnQIF1hJyZM2NomsUhdcIiq8RFGFVFGC9cnz1ohCrogjrQTFWQSFWZbRJV4/htiEUT6dAcbWUHFlzouCaA4XXCAqvXhRgvSjAeuT46kURVkUB1oNCrIIirIfhJl09htsJUTSdCkXV0nJozYmCaxRF1xwowHpQfPWiAOuVA6wXhVgVRVgPirEKirAqOqBLOn+G2wlQOJ0SRdVScmAtgaJrFAXXKIqvXhRfvSi+euX46kEB1oMCrAeFWBWFWBUd0CWdv82FW7xoxFs89iri7RzCjWJpCyislpQDa24UXHOh8BpB8TWCAqwXBViPHGC9KMJ6UIT1oBCroAircHlUutoMt4VQKG0FRdXScmTNiUJrThReIyi8RlB89aIA65UDrAcFWA8KsCqKsB4UYxWGm3S1GW4zoUDaGgqqpeXImhuF1pwovEZQeI2g+OpF8dUjx1cvCrBeFGIVFGA9KMQqjDZJhlsnCqOtoqBaWg6sJVBozYnCawSF1wiKrxEUYVU5vkZQgPWgEKuiCOtBMVZhuEnabLjF0xMi3p5//vmThxvF0B5QUK0hB9YSKLTmQtE1B4qvERRfPSjAeuX46kUB1otCrIICrAeFWIXRJikYbkcofvaGQmotOa6WQrE1FwquURRdIyi+elF89crxNYICrIoirAdFWA+KsQrDTVIw3I5QCO0NBdVacmAthYJrLhReoyi+RlCA9aIA65XjawSFWBVFWA+KsB4UYxWGm6RwFuH29a9/vTncKHbOAYXUmnJcLYViay4UXaMovEZQfI2gAOuRw2sERVgVBVgPCrAeFGIVcewz3CSFXYVb7HAclGOQjQg7DrdzjrKboYhaC4XVUnJkzY2iaxSF1wgKrxEUYL0owKpyfI2gCOtBEVZBEdbDaJM02UW4xY7FTsYOx0E5BtoItVgiDVct3Cii1kZxtYQcWEug6BpF4TWCwmsExVcvirAeOb56UYD1oBCrogjrYbhJmmwu3B599NHLF47HXkW8GW5vo3g6BYqrpeTAWgJF1ygKr1EUX70ovnpRgPXI8TWCIqwHhVgFBVgPo03SMcNtwyicToniaik5sOZEsTUXiq5RFF8jKMB6UYRV5fAaQQHWg0KsiiKsh+Em6ZjhtkEUTadCUbW0HFpzotiaAwXXHCi8RlB89aAA65XjqxcFWC8KsQoKsB75gC1JhttGUDSdEgXVknJgLYGCaw4UXKMoukZQfPWi+OqV42sEBVgVRVgPirAe+YAtSZsNt7hAIeLtueeeO8two1jaCgqrJeXAWgIF1xwoukZReI2g+BpBAdYjh9cIirAqCrAeFGBVLo9KupHNhdsjjzxyEfF2juFGkbQVFFRryIG1BAquOVB0jaLwGkHhNYICrFeOrxEUYlUUYT0oxCqMNkk3Y7gtiAJpayim1pDjagkUW3Oh6BpF4TWK4qsXxVevHF69KMB6UID1oBCrMtwk3YzhNhOKoi2jmFpDjqulUGzNhaJrDhReIyi+elF8jcgB1oMCrBdFWA8KsYqINsNN0s0YbjOhONoyiqo15MBaCgXXXCi65kDxNYICrBfF14gcYT0owHpRhPWgGKsw2iTdiuHWiWJo6yik1pLDakkUW3Og2JoLhdcIiq8RFF89cnyNoADrQQFWRRFW5WybpBabCrfDC3374Ycfvoh4i3ALWwg3iqA9oZBaUw6rpVBszYViay4UXr0oukZQfPXK4TWCAqwHRVgPCrEqo01SC8PtCEXPnlFErS3H1RIotOZEsTUHCq8RFF4jKL565fAaQQHWiyKsiiKsh+EmqcWVCjeKm3ND8bS2HFZLotCaEwXXHCi8RlF8jaAA65XjawQFWA+KsCoKsB5Gm6RWuwy3GFAjxCLYwte+9rUrE2Y3QgG1NgqrJeXImhsF1xwoukZReI2g+OqVw2sEBVgvCrEqirAehpukVpsPt2efffbilVdeuXjjjTcu3nrrrcsDbgyqhtvbKKBOgcJqSTmy5kSxNReKrlEUXiMovnpRfPXK4dWLAqwHBViVwSaparPhFi8eDLdrUTSdCgXV0nJkzY1iay4UXaMovEZQfI2gAOuVA6wHBVgvCrEqw01SleG2ExROp0RRtaQcWEug2JoDBdccKLxGUHiNoPjqkeNrBAVYD4qwKqNNUg/DbaMolraAomppObCWQME1BwquURRdIyi6RlB89crhNYICrAdFWA/DTVIPw21DKJS2goJqaTmulkLBNQeKrlEUXqMovnpRfI3I8dWLAqwXRViV0Sap1+bCLV4w4i2ennDu4UaBtCUUU2vJcTU3Cq05UXSNougaRfE1guKrV46vERRgVRRgPSLaDDdJvQy3E6JY2hIKqrXk0JobxdacKLxGUXiNovgaQQHWK8fXCAqxKoqwHkabpBGG28ookLaGQmoNOa6WQqE1J4quOVB4jaDwGkHx1SuH1wiKsB4UYVXOtkkaZbgtjMJoyyio1pDjaikUWnOi4JoDhdcICq8RFF8jcnz1oPjqRRHWw2iTNMpwmxGF0B5QSK0px9VSKLTmQrE1FwqvERReIyi8RuQA60UB1oMCrJfhJmnU5sPtmWee2Wy4UQTtCUXUmnJYLYliay4UW3Oh8BpF8TWC4qtHDq8RFGC9KMB60AFYkqo2F26f/vSnL180bgkS8Rbh9vLLL5803Ch69owiam05rJZAkTU3iq05UHDNgcJrBAVYjxxeIyi+elGAVTnLJmlOhtt3UOCcCwqnU8hhtSSKrLlRcM2BgmsURdcIiq8ROb5GUID1oAjrYbhJmtPZhxuFzFVB8XQKOaqWRpE1NwquOVB0jaLwGkHhNSKH1wgKsF4UYVVGm6S5bT7cYkci3F5//fXLnY0DagycEWURbMfRRvFy1VA4nRKF1ZJyYC2BgmsOFF2jKLxGUHiNoPjqlcNrBEVYD8NN0tw2FW7333//tx966KGLiLe4QCHizXC7NQqmU6KgWlIOqyVQaM2JomsUhdcoiq9eFF8jcnz1oPjqZbRJWoLhtmMUTadEUbW0HFhLoNCaE0XXKIquURRfIyi+euUA60UB1sNok7QUw21HKJa2gqJqaTmwlkChNRcKrlEUXHOg8BpB8dUjh9cICrBehpukpRhuO0LBtBUUVkvLkbUECq65UHiNouiaA8XXCIqwHjm+RlCA9YhoM9wkLcVw2zAKpC2hmFpDjqulUGzNhaJrFAXXKIquERRfI3J89aIA62G0SVra5sPt6aefvlLhRoG0NRRTa8lxtQQKrTlRdI2i6BpF4TWCwmtEjq8RFGE96CArSXPqDbf3ve99y4ZbvHDEW4Rb7NS5hhuF0VZRSK0hh9WSKLTmRNE1BwqvERReoyi+euXwGkEB1osOspI0J8PtBCiKtopCak05rJZCkTU3Cq45UHiNoOgaRfHVK4fXCIqvHi6PSlqL4bYwiqE9oIhaUw6rJVFkzYliay4UXqMovEZQfI3I8TWCIqzKaJO0pp5wu+222ww3QgG0NxRRa8thtSQKrblQaM2JomsUhdcICq8RObxGUIT1MNwkrclwG0Dhs0cUT2vLQbU0Cq05UWjNhYJrDhReIyi8RuTw6kXx1ctok7S2zYXbgw8+eBHxFi8cTh1uFDrnggLqFHJULYkia24UW3Oh4BpF0TUHiq8eObxGUYD1Mtwkrc1wO6CoOWcUT6eQo2ppFFlzo9iaC0XXKAquURRfI3J4jaD46mW0STqFSrjdcccd+wk3CpariqLpVHJMrYUia04UWnOi6BpF0TWKwmtEDq8RFF+9jDZJp7KbcIsdfPPNNy8PmjFQRpxFtH31q1+9JtwoXK4qCqdToqBaUo6rpVBozYmiaxRF1ygKrxEUX71yeI0y3CSdyubCLV7sONyeeuqpG4ZbRFsw2hjF0ylRXC0pB9ZSKLbmROE1isJrFMXXCAqwXjm8ekWwTeiAKklL22S4xaxbXFkaDLd2FEtbQFG1tBxXS6HQmhNF1yiKrlEUXiMovkbkAOthsEnaAsPtDFAsnRrF1BpyWC2FImsuFFtzoegaReE1gsJrRA6wHkabpK0w3HaIQmkrKKbWkuNqKRRbc6HYmgMF1xwovEZRfPXI8TXCaJO0FYbbTlAkbQ3F1NJyVC2JQmtOFFxzoOCaC4VXL4qvETm+RhhukrbCcNsoCqOtoqBaQw6rJVFozYmCaw4UW3Og8BpB4TUih9cIo03Slmwu3B544IHLF4wrS69auFEUbRWF1JpyWC2FImtuFFxzoOCaA4XXCAqvETm8RhhtkrbGcDsRiqE9oIhaUw6rJVFkzYliay4UXHOg8BpB4TUih9cow03S1hhuK6IQ2guKqLXkoFoaRdbcKLbmQLE1FwqvURRfvXJ0jaIDpiSdmuG2AAqfvaGAOoUcVUujyJobBdccKLbmQtE1iuJrRA6vXs6ySdqyzYZbXKAQ8fbkk09evPTSS5sNN4qePaN4OoUcVEujwFoCBdccKLbmQME1BwqvETm+ehltkrZuU+F27733bjLcKHDOCYXTKeWoWhoF1pwotOZEwTUHCq5RFF0jcniNMtwkbd0mwy0YbuuheDqlHFZLo9iaE8XWnCi65kDhNYria0QOrxERbYabpK0z3A4oZq4CiqZTyTG1FgqtOVFozYmCaw4UXaMovEbk8BphtEnai12FW+xoHFxjQIzgimj7yle+guFGoXLVUTCdGsXU0nJcLYVCa04UXHOg6BpF4TWC4quX0SZpT3YRbi+++OLFa6+9dl24RbSFKdooVmSwHctxtRQKrblQbM2FomsUhdcoCrBeRpukPdlcuN1///2X4RYvGvFmuPWhWNoCiqk15LBaEsXWXCi25kLRNYqiaxTF1wjDTdKeGG5ngiJpSyim1pLDagkUWXOj2JoDBddcKLxGUHiNoIOiJG2Z4bZjFEhbQyG1hhxWS6LImhsF1xwotuZC4TWCwquXs2yS9spw2xEKoy2ikFpTDqslUWTNjYJrDhRbc6DoGkHhNcJok7Rnmw+3J5544sqGG0XRllFErSlH1dIosuZGwTUHCq45UHiNovjqZbRJ2rtNhdsnP/nJb993330XEW/xouGqhRsF0dZRRK0pB9XSKLDmRKE1JwquOVB0jaL4GmG4Sdo7w+2EKIL2ggJqbTmolkaRNTcKrTlRcM2BomsUhdcIo03SOTDcVkQBtDcUUGvLQbUGiqy5UWjNhWJrLhRdoyi8RsRxw3CTdA4MtxVRCO0NhdTaclStgUJrbhRcc6HgmguF1yiKr15Gm6RzYrgtgIJnryicTikH1dIosJZAsTUXiq25UHSNovjqYbBJOkebC7d77733IuItriwNWw43Cp1zQdF0Kjmm1kKBtQSKrblQbM2BgmsUxdcIo03SOTLcboGi5pxROJ1KDqk1UFgthUJrThRcc6DoGkXhNcpwk3SOrnS4UbhcNRRMW5CDag0UV0ugyJobBdccKLpGUXSNMtoknauzCjcKEzGKpVPLIbUWiqulUGTNiWJrLhRdoyi6Rhltks7Z5sPt8ccfv3jhhRcuXn311Ys33njjcqdjAIwZsy9/+cuXptk2ChS9jUJpKyim1pLDakkUWnOi2JoLRdccKLxGGG2Szt0mwy3ElaXBcOtHkbQlFFJryVG1FAqsJVBszYFiay4UXiOMNklXgeF2ZiiQtoQiak05rJZEgbUECq45UGzNhcKrl8Em6Sox3HaO4miLKKLWlKNqaRRYc6PYmgvF1hwovEYZbpKuEsNtZyiKtowiam05qpZGkTUnCq05UXDNgaJrlNEm6arZXLjdc889l+EWFygEw81Y65FjamkUWEug0JoTBdccKLpGRbQZbpKuGsNtYyiE9oIC6hRyVC2NAmsJFFpzouCaA0XXKKNN0lVluG0MBdFeUESdQg6rpVFkLYFia04UXXOg8BphtEm6ygy3E6L42SOKp1PIQbUGCqwlUGjNhWJrLhReI4w2SVed4bYiip69onA6hRxSa6G4WgKF1pwotuZC4TUqH8Ak6arZfLg99thjlzu0p3Cj0DkHFE6nlGNqLRRYc6PImhvF1hwouEY5yyZJb9tUuB1e5NuHeLs4jrcthxvFzbmhYDq1HFJroLhaCkXW3Ci45kDRNcpok6R/ZLjdAsXMuaNYOrUcUmuiuFoKRdacKLbmQtE1ymiTpGtdyXCjWLnqKJa2IEfUmiislkKRNScKrTlRdI0y2iTpepsPt9iJKdxef/31y52OgS4C7Etf+tI10UZBohujUNoKCqm15KhaGoXWnCi05kTRNcpokyRWCbcPfvCDl/FmuO0chdKWUEytIQfV0iiy5kahNSeKrlH5ICVJ+kebDLfjeDPcxlEcbQ2F1JpyVC2JAmsJFFpzoeCaSz5ISZL+keF2piiOtogiak05qpZGgbUEiq25UGzNIZZHXSKVpJsz3M4ABdHWUUStJcfUWiiw5kSRNTcKrjkYbZLUxnA7AxRGW0dBtZYcVGuh2JoThdbcKLpGGW2S1G5z4faJT3zimnB79NFHL55//nnD7QiF0NZRQJ1Cjqk1UGTNjSJrThRcczDaJKlmk+EWItyC4fY2iqE9oHg6hRxTa6DAWgKF1lwotuZktElSjeG2QRRAe0LhdEo5qNZAgbUEiq25UGjNyWiTpDrD7cQofPaKoulUckitheJqKRRbc6HQmovBJkn9DLcVUeycAwqnU8khtRYKqyVQZM2NYmsuRpskjTHcFkBxc04omE4pR9SaKK6WQpE1N4qtuRhtkjRuc+F29913X4TptiBbDTcKmnNH0XRqOaTWRHG1FIqsuVFszcVok6R5GG6AouUqolDaihxRa6KwWgoF1twotOaSDziSpDFXKtwoTnQtiqQtyRG1JgqrpVBgzY1Cay7OsEnSMnYTbrFzsZNvvfXW5cAWIXYcboZZPwqkLaGIWlOOqqVRZM2NYmsuEW2GmyQtY3PhFi8U4TZdpPDII49cPPfccxhuebaNokSMAmlrKKLWlqNqaRRZc6PYmovRJknLMtyuKAqlraGQWlsOq6VRaM2NgmsORpskLc9wuyIojLaKAmpNOabWQIG1BAquORhtkrQOw+2MURRtFQXU2nJMrYUCa24UW3My2iRpHYbbmaAY2gMKqFPIMbU0iqulUGjNiQ4skqRlGG47RiG0FxRPp5CDag0UV0ugyJqTs2yStL5NhtsUb8FwexvFz55QNJ1KDqm1UFwthUJrTkabJJ2G4bZBFD57ReF0Sjmm1kBhtRSKrLkZbZJ0OobbiVHs7B0F06nlmFoLxdUSKLDmZrBJ0ukZbiuiyDkXFEunliNqTRRXS6HImhsdPCRJ69tUuH384x//9p133nkRpoB7+OGHL5599tldhRuFzTmiWNqCHFFro7haCkXWnJxlk6RtMdw6UchcBRRKW5EDak0UVUuhwFpCRJvhJknbYrglFCsy2G6EwmpJFFhLMNokaZsMt4SiRYbbjVBcLYkia25GmyRt1+7CLXY4BrCIrONwywEWKEDUhgJpayik1pSjamkUWXOZYs1ok6Rt23y4xQ4888wzF6+88sp14ZZn2yhA1IbCaKsootaUg2ppFFpzM9YkaR82F24HF2GKN8NtORRFW0UBtbYcVGugyJqb0SZJ+2G4XSEURFtG8XQKOabWQIG1BKNNkvbFcDtzFERbR/F0Cjmm1kBxtRSjTZL2x3A7IxRBe0HhdCo5ptZCcbUEOhBIkvbBcNs5iqA9oXA6lRxSa6G4WoIzbJK0f5sKt49+9KPXhFv49Kc/bbh9B4XPXlE4nUoOqbVQXC3FaJOk82C4bRCFzt5RMJ1Sjqg1UVgtxWCTpPNiuJ0YRc45oWg6tRxSa6K4WkpEm+EmSefFcFsRhc25oVDaihxRa6GoWprRJknnqSfcbr/99uXC7WMf+9hFMNz2iYJpK3JQrYXCaikGmySdt82G2zTztqdwo5C5KiiUtiKH1JoorpYwBZvRJknnzXAromi5iiiQtiQH1NoorpZisEnS1WG4fQfFia5HkbQlOaDWRmG1NKNNkq6Oswk342sZFEdbk+PpFCiolmSsSdLVtJtwe/nlly9ee+21izfffPNy4IpQy7NtFB6qozjaIgqoteWgWoPRJklX1+bC7eAiTAH30EMPGW4LoyjaMgqoU8hBtTSDTZJkuF1RFERbRuF0Kjmo1mC0SZKC4XYFUAjtAUXTqeSQWoOxJknKDLczRSG0FxROp5Jjai1GmySJbDLcPvKRj1zGWzDcbo3iZ28omk4tx9RaItoMN0kSMdx2hqJnryiWTi1H1JqmYDPaJEk3YrjtDAXQXlE4nVqOqaUdx5rBJkm6FcNtwyh29o5iaQtyUK3BWJMkVRluG0GRc04olrYgx9QanGGTJPXaXLhFtOVwi505l3CjqDlHFElbkUNqbQabJKnXJsPtwx/+8GW8hQcffHB34UYhcxVQJG1JDqhTMNokSSMMtyIKlquOImlLcjytzViTJM3FcPsOChIxiqOtyfF0CgabJGluZxFuU7RRZGgeFEdblOPpVIw2SdISNh9u8eKxM7Fjr7766uXOxqAYoRYzbcezbRQc6kNRtFUUTqdgrEmSlra5cIto+9CHPvROvBlu66Ag2jqKp1Mw2CRJazHcrigKob2geDoVo02StCbD7YqgANoLCqZTi8/ghL6xJElaguF2RVAQ7QWF0ykYa5KkU9tFuD399NOGWxEF0N5QPJ2CwSZJ2opNh1sw3G6NomfPKJ5OwWCTJG2N4bYzFDp7R9G0BfQNI0nSKRluG0aRc04olk7N2TVJ0pYZbhtBYXNuKJS2wmCTJO3BpsLtEGpnHW4UM1cBhdIWGGuSpL3ZXLhFtMULxa/hgQce2E24UbRcRRRJW2KwSZL2ynAroEjR2yiQtsZgkyTt3ZUONwoQtaEw2iJjTZJ0TnrD7f3vf/+64fbSSy9d7uAbb7xxueMRXhFsx9FGgaH5UBhtlcEmSTpHmwu36UXi1xDh9tRTTxluJ0BBtHURbJP8YZckae82H27333+/4XYiFEZbdBxrBpsk6ZwZbroGhdFWGWuSpKvGcLvCKIa27DjUDDZJ0lVUCbfpugHDbacohvbEUJMkXXWG2xmj+Nkjg02SpLe1htvdd9+9XrjFC0S8BcOtDQXPnuUPqiRJagu3Bx980HDbCoqcc+HMmiRJN2e4bRjFzbkx1iRJame4nRjFzLkz1iRJ6rO5cItYu+222y5fJNx3330XTz755FmEG0XMVWGsSZI0znCbCcXKVWaoSZI0P8OtAYWJrhexdix/2CRJ0hjDrQFFiq4PNWNNkqRl7SrcXnnllYvXX3/94q233roMquNwy7F1IxQgameoSZJ0OpsLt/jDj8Pt3nvvvXjiiScuXnzxxevCLYLteLaNQkNjcqgZa5Iknc5mw21iuJ2WoSZJ0nYYbroGfUgkSdI2GG5XnDNqkiTth+F2hRhpkiTtm+F2xugvXJIk7demwu3wh387Yu0DH/jAO+F2zz33GG4NnE2TJOn8GW47Y6BJknR1GW4bZqRJkqRjhtuJRZzdDP2lSZKkq8lwWwEF2TH6i5EkSco2GW7xh0e8hT2EG8VYRm++JElSheF2AxRfN0NvriRJ0pwMtxswxiRJ0tacfbgZYJIk6VzsItwef/zxixdeeOHi5ZdfvtzR2OmIsgi242ijL1CSJOlcbC7cItbe9773Xb5A+OQnP2m4SZIkHRhukiRJO2G4SZIk7YThJkmStBObDrf41XCTJEl6W0+43XHHHcuFW/zB733vey+jzXCTJEn6R4abJEnSThhukiRJO2G4SZIk7URruH3iE58w3CRJkk7JcJMkSdoJw02SJGknDDdJkqSdMNwkSZJ2wnCTJEnaCcNNkiRpJzYXbj5kXpIkiRlukiRJO2G4SZIk7YThJkmStBOGmyRJ0k4YbpIkSTthuEmSJO2E4SZJkrQThpskSdJOGG6SJEk7YbhJkiTthOEmSZK0E4abJEnSThhukiRJO2G4SZIk7YThJkmStBOGmyRJ0k4YbpIkSTuxuXC77bbbLv/wCLhwzz33GG6SJEkHhpskSdJOGG6SJEk7MRJu73nPeww3SZKktRhukiRJO2G4SZIk7UQl3D784Q9fxpvhJkmSdAKGmyRJ0k4YbpIkSTthuEmSJO2E4SZJkrQThpskSdJOGG6SJEk7YbhJkiTthOEmSZK0E4abJEnSThhukiRJO2G4SZIk7cQmwy2CLX4NhpskSdLbDDdJkqSdMNwkSZJ2wnCTJEnaCcNNkiRpJww3SZKknTDcJEmSdsJwkyRJ2gnDTZIkaScMN0mSpJ0w3CRJknbCcJMkSdoJw02SJGknDDdJkqSdMNwkSZJ2ojfcoq0MN0mSpBUZbpIkSTuxi3B74oknDDdJknTl9YTboa+WCbfDC3z79ttvfyfawr333mu4SZIkHVTC7SMf+YjhJkmSdCqGmyRJ0k4YbpIkSTthuEmSJO2E4SZJkrQThpskSdJOGG6SJEk7YbhJkiTthOEmSZK0E4abJEnSThhukiRJO2G4SZIk7YThJkmStBOGmyRJ0k4YbpIkSTthuEmSJO3E5sLtjjvuuAy2CLhguEmSJL3NcJMkSdoJw02SJGknDDdJkqSdMNwkSZJ2wnCTJEnaCcNNkiRpJww3SZKknTDcJEmSdsJwkyRJ2gnDTZIkaScMN0mSpJ0w3CRJknaiGm6HtjLcJEmSTsFwkyRJ2gnDTZIkaScMN0mSpJ0w3CRJknbCcJMkSdqJzYVb/OERbBFw4b777rt48sknDTdJknTlGW6SJEk7YbhJkiTthOEmSZK0E4abJEnSThhukiRJO2G4SZIk7YThJkmStBOGmyRJ0k4YbpIkSTthuEmSJO2E4SZJkrQThpskSdJOGG6SJEk7YbhJkiTthOEmSZK0E4abJEnSTmwy3CLY4tdw//33G26SJEkHhpskSdJOGG6SJEk7YbhJkiTthOEmSZK0Ez3h9qEPfejitttuM9wkSZLWVAm3j370o5fxZrhJkiSdQGu4ffKTnzTcJEmSTslwkyRJ2gnDTZIkaScMN0mSpJ0w3CRJknbCcJMkSdoJw02SJGknDDdJkqSdMNwkSZJ2wnCTJEnaic2FW/zhhpskSdL1NhluEWzxa3jggQcMN0mSpAPDTZIkaScMN0mSpJ0w3CRJknbCcJMkSdoJw02SJGknDDdJkqSdMNwkSZJ2wnCTJEnaCcNNkiRpJww3SZKknTDcJEmSdsJwkyRJ2gnDTZIkaSd2H27x61tvvYVfnCRJ0rmI3nnzzTf3GW6x86+//vrFG2+8cflFTP8ffaGSJEl7dhxt0T/h1VdfvXjllVcw3O65555thFuU5UsvvXS5o7HDxpskSTpnFG0xkXUccM8+++w2wu2+++67eOyxxy6eeuqpS1GUzz//vPEmSZLO3q2i7bXXXruc3IpJrocffnjdpdLDC3z7EG+XLzD9Gi8as26PP/74pdgx402SJJ27arQ99NBDl9EWk1533nnnOuH28Y9//OJjH/vY5Yvccccdl4w3SZJ0lfRG27333nsZbRFsU7QtFm5PPfXUN5999tn/K6b3crzFi8fOGG+SJOmcjURbTIDlaItT0KKr3vWud/3IobfmC7eDzzz22GO/9Mwzz/zfFG+xfHr//fcbb5Ik6Sz1RNunPvWpy+XRadWSou0973nPNw6d9fzBrOH26YNnDjvyW4d4+39uFG+xg8abJEk6J73RNi2P3ija3v3ud3/r0FdvHES4PXIwHG4fOLjr4KGDpw++eNiZPzrE2/9L8Rb/HDv76KOPGm+SJGn3RqPt+EKEFG2/eeiqWCJ9/eC5g4cPPnEQk2bRYF3h9v6DOw8ePHjq4NWDH3zggQf+4hBk/9+NznmLZdNHHnnEeJMkSbvVG21xr7abRdu73vWu3zn01FcPfvjgiwfPHHzmIFY5p3CLFosuu+UW/1H8x+8+eN/Bxw4eOHj84PMHbx38xCHe/vJG8RY7a7xJkqS96om246tHbxJtv3/oqJ86+MmD7z945eDJg5gk+/hBTJpFg5XC7bsO3nXw3oMPH8Saa0zhxVReTOlFIX7lEGd/TfEWO3fXXXddnpDnsqkkSdqT3mhrmGmLaPtmNNTBjx58z8ELB3Fhwr0HHz2ISbNosGix5nCL5dJYW42T4+44iAL81EEsl7508H0HP37wtZvFW/zz9IQF402SJG3dgjNtf3Dopoi2rx/8xMEPHLx88LmDuAg0rin40EG0V1e4TculcYHCRw5i1i2ueIh12C8cxAvGC9803mLn4wsy3iRJ0pb1Rtt0y49bRNvPHES0xRLpDx28dhArmY8d3HcQs21xftu0TBotVgq34+XSadbt/oOYzovLVuMF44VvGW9xq5BPf/rTlw9ZNd4kSdLWjEZbBNsNou0PD530swcRbV86iNPN4rSzWCKNaIsVzbgQ9IMH0zLpFG7NW8RbhFv8xunq0vgDYxovLlSIF4oXjCshppm3rx/i7W8o3kJ8MfFFOvMmSZK2ZIVoi5vsxkxbRFuc1xannU0XJMQtQGKJNFY4Y5k02qt5mXTa4j+eZt7iXLeYtot4iz844i3q8ImDKd7iqojYoSne8D5vMfMWzzbtibf4VZIkaW490RYXItwi2mJ59OcOItpipu0HD6Zoi2sG4h65EW1xOlpEW0yUxWxb8xIpbdPM2xRv8QdP8RaVGLUY8RbLprFDU7zFsinGW3xxh39/GW6t8RZvpiRJ0hKiNyrR1vDs0eOZtuPl0RcP4oEGcTHCFG1xXlv3TBtt0/luEW9RgzneYubtuw9ih66Jt6effvqGy6aVeJMkSVpSa7Q13PKDoi1m2iLaYqYtbrSboy0aK1praLZt2qYl0+OZtzh5bjrnLZZNP3sQ8Tad8zbdKuSvKN7i1/jnlnijN1eSJGlut4q2aabtFlePHkdbXMQZzyKNaIuJrml5NCbA4hS0mBCboi16azjapu043mL9dbpgYZp5i6tN44KFaebt+IKFd642jS92irc4361l5o1OIpQkSZrbjaItHmPVcMuPmGmLW37kaItz2iLaYqIrbq0WDzaYLkSY7tc2y0zb8TaF2/HMW142nR6LNZ3zNs28vRNv04l80xca4g2ICxboCQsxZflDP/RDkiRJi4vz3XK0RaNEtMXyaATbTWbapgsRYuIqoi0msuJRocdXj0a0Tcujx7f9mDXapo3iLV443ypkOudtuto04u0bN4u3+KJjCjI/2/QLX/jCZflKkiQtLbqDZtoaoi2WR6fnj8b5/tOFCHFOW462uD/uYjNteYs/fAq445m3fKuQmHk7Puct6jPi7a9uFG/xz3nm7ZlnnpEkSVoNRVvDhQgRbdMtP6bl0Zhpm85pm5ZHo5lWi7bjLcfb8X3e7j6Y7vM2xVt8IdM5b83xJkmStKZY/YtVwOnc/JvMtEW0Hd+n7fiWHzHTFrf8iHPaju/TNl2IsGq0TdvNZt4i3mJqcJp5m24VMs283fKctyjez3zmM5KkE4hjsHQVxee/4YHxeaZtuuVHnOcfM23TLT+OZ9qmaIt+Wj3apu1m8RY7PC2bxhcSU4cRb/EF3jTe4k266667pNXcfffd0sUnPvEJHcRMg5YT4576RFCtoSHa4urRiLYvH0S0vXkwXYgQy6PHV48eL4+eLNiOtxvFW+zwNPMWy6YxdRjxFldaRLzFsunls03jL+M43qZbhUhLiW9IrSsOeLq5OA5eVTFQXgX0g+M5oB+E9ip+eIm/qxgrINqOrx6NaPuRgyna4okIU7RNy6PTzXXLD41fepum/WKnYufonLd8wcJ0q5Dr4i3CTZpbjjetgyJO18sRd5XkiDtXOeLUjmJxaXH8gmg7vnr0+Oa600xbXKRJy6Obirbj7TjeYodjx49n3vJ93uILj2XTd+It3px84Jd60OCo9RwPzGI0uF81NEifIwqDc0AzVnuUTxcI8fWlaJturhszbdN92o6vHs3Lo8fRtoklUtqOl01jPTemCKd4m855m642jXiblk0vH48V8TadGHiV5RMldbXFFU6aR1yxviWf/exnr6zHHnvsJOgqwnPyxBNPnJW4NdjSnnrqqRtK0fb1g2l59Pjq0Yi2ew4+enC8PLr5aJu2G8VbrPdGvMUXGDNvzx3EsmnEW8y8ffUDH/jA7xx+Mvnbg78//CT2D5I+/g+Hn/p0hg4/0Z/cPffcoxXcd9992p+/Dx/96EenaPvaQUw0RbTF8mhMQMVM23TLj4i24yci7Cbapm2Kt1gypZm3WDaNZ5tGrU63Crl8MP3BTx/8/MEvHnzryC9JkiQt5Lg5okF+4WCaaYsJpumWH9PVo8fRdvvBFG3Hj7HaTbjFdqN4i5m3OOctHo8VX/gUb9MFC185iBP/vnkQJwGGuIJDkiRpadEdEWwxkRQTStNjrKZoO756dJppmx5jFc0Ts227CrbjbYq3+CKmW4VMM29x5UV84RFvccHCqwffdxDTkLGG/NWDqNyIOEmSpKXFxQfRHtEg0SI/dhATS9M5bRFt0811YyLqRjNtu91i528Ub/Fg+mnZdDrn7QsHUbRRtjElGW9YPG1BkiRpabHyF+0Rk0jRInGPtriY8victrgQISagpnPadnUhQut2HG/Tsul0n7eYeYtl00cOnjmIoo3Zt7hwId6wtyRJklbwvQfRHjHDFsEWt/uIiaU4Lz9WCaeZtpiAmpZHzy7api3H23ST3ph5+9hBFGyU7KMHcXnt5w7izYrKDbGcKkmStISpN54/iImkWBaNYIul0fsPYqIpJpwi2mL1cIq26Juzi7ZpO463adn0fQexRjyd93bvQSyfRsQ9fBAhFz4rSZK0kKk3oj0i1mKGLYItZtniIoQ7DiLaznZ5lLYp3I7jLWbeYrox3ox4U2IK8uMHEXFx9Wm8YZO4gkOSJGlOx60RokGiRSLYYmVwWho9nmk7+2ibthxv0+1C4s2INyWWT+OEv5iFCxFz8aZJkiQtLboj+iNaJIItVganYLsyM215iy92Crh4A6bZt+nct3iDYiryWESdJEnSEnJ3RItEk4RolOkebVcu2o63HHDxpoR4gyYRc5IkSWs4bpCpS6Zgu9LRdrwdB9yxaTZOkiRpDblFpkZxu8k2vUmSJEmn5Obm5ubm5ubm5ubm5ubm5ubm5ubm5ubm5ubm5uZ2yu2f/JP/H2HZkLbHep9FAAAAAElFTkSuQmCC;" parent="1" vertex="1">
          <mxGeometry x="60" y="387.19" width="292" height="271.81" as="geometry" />
        </mxCell>
        <mxCell id="gi-lY1AvrVabSPQ4t-Rw-1" value="CMSS CXL" style="text;html=1;align=center;verticalAlign=middle;whiteSpace=wrap;rounded=0;" vertex="1" parent="1">
          <mxGeometry x="470" y="290" width="100" height="30" as="geometry" />
        </mxCell>
        <mxCell id="gi-lY1AvrVabSPQ4t-Rw-4" value="" style="shape=image;verticalLabelPosition=bottom;labelBackgroundColor=default;verticalAlign=top;aspect=fixed;imageAspect=0;image=data:image/png,iVBORw0KGgoAAAANSUhEUgAAAgoAAAGHCAMAAADm2Yr8AAAAAXNSR0IArs4c6QAAAARnQU1BAACxjwv8YQUAAAD5UExURQAAAAcHBwQEBAYGBggICAMDAwAAAAUFBQEBAQ8PDzdwl1qtxVipxTZvlTV9sF/G93zs/1i53y5xn0iq72vW/4n4/2TI7DmMxU23/mnW/4Dv/2PJ8T+a2U+5/2TQ/3Ti/1/G9UOh5E+6/1zJ/2jU/1vD+Uao7FjD/1vH/1bA/Umu9VC6/1K9/0y0/FC7/1C4/061/FC1+lG0+E6v9VCy9lGx8U2r7VCx8VKt6kyn5k+p6lCk4Ume2kaX0UiVykGNwy5fgTZskjhvlzdtlC1fgwkJCRIXGhMaHhMaHxMZHQsLCw4ODgoKChoaGiUlJRkZGRMTEx0dHRISEpMIaGUAAAABdFJOUwBA5thmAAAACXBIWXMAABcRAAAXEQHKJvM/AAAD3UlEQVR4Xu3V1VYWYBRFURDF3+4WA7u7O7D7/R/GMWSpiMALfHPenfs19pkCWG56HcOb+ZXC+g2zjG7jYgrrOhnX7xQmkw0MbLIkhdmZTQxrZukqzE42b2FMW7f98yBmJ9t37GRIu3YvT2HP3n0MaP+B/1M4eOgwwzlydKUU5o4dZzAnTq6cwvyp0wzlzNnVUpg/d56BXLi4egqXLjOQK2ulcJVxzEmBRVIgUiBSIFIgUiBSIFIgUiBSIFIgUiBSIFIgUiBSIFIgUiBSIFIgUiBSIFIgUiBSIFIgUiBSIFIgUiBSIFIgUiBSIFIgUiBSIFIgUiBSIFIgUiBSIFIgUiBSIFIgUiBSIFIgUiBSIFIgUiBSIFIgUiBSIFIgUiBSIFIgUiBSIFIgUiBSIFIgUiBSIFIgUiBSIFIgUiBSIFIgUiBSIFIgUiBSIFIgUiBSIFIgUiBSIFIgUiBSIFIgUiBSIFIgUiBSIFIgUiBSIFIgUiBSIFIgUiBSIFIgUiBSIFIgUiBSIFIgUiBSIFIgUiBSIFIgUiBSIFIgUiBSIFIgUiBSIFIgUiBSIFIgUiBSIFIgUiBSIFIgUiBSIFIgUiBSIFIgUiBSIFIgUiBSIFIgUiBSIFIgUiBSIFIgUiBSIFIgUiBSIFIgUiBSIFIgUiBSIFIgUiBSIFIgUiBSIFIgUiBSIFIgUiBSIFIgUiBSIFIgUiBSIFIgUiBSIFIgUiBSIFIgUiBSIFIgUiBSIFIgUiBSIFIgUiBSIFIgUiBSIFIgUiBSIFIgUiBSIFIgUiBSIFIgUiBSIFIgUiBSIFIgUiBSIFIgUiBSIFIgUiBSIFIgUiBSIFIgUiBSIFIgUiBSIFIgUiBSIFIgUiBSIFIgUiBSIFIgUiBSIFIgUiBSIFIgUiBSIFIgUiBSIFIgUiBSIFIgUiBSIFIgUiBSIFIgUiBSIFIgUiBSIFIgUiBSIFIgUiBSIFIgUiBSIFIgUiBSIFIgUiBSIFIgUiBSIFIgUiBSIFIgUiBSIFIgUiBSIFIgUiBSIFIgUiBSIFIgUiBSIFIgUiBSIFIgUiBSIFIgUiBSIFIgUiBSIFIgUiBSIFIgUiBSIFIgUiBSIFIgUiBSIFIgUiBSIFIgUiBSIFIgUiBSIFIgUiBSIFIgUiBSIFIgUiBSIFIgUiBSIFIgUiBSIFIgUiBSIGumcI2RXF89hRs3Gcqt1VK4fYfB3F05hXv3Gc6DlVJ4+IgBPf4/hSdPGdKz5Sk8f/GSIb16/W8KC2/evmNM7xeWpjD9gYFN/03hw0eG9ul3Cp+/MLiviyl8+87wfvxKAeCPqamfBakatjhkovMAAAAASUVORK5CYII=;" vertex="1" parent="1">
          <mxGeometry x="470" y="400" width="260" height="194.75" as="geometry" />
        </mxCell>
        <mxCell id="gi-lY1AvrVabSPQ4t-Rw-3" value="" style="shape=image;verticalLabelPosition=bottom;labelBackgroundColor=default;verticalAlign=top;aspect=fixed;imageAspect=0;image=data:image/png,iVBORw0KGgoAAAANSUhEUgAAAFkAAADrCAMAAAA118rjAAAAAXNSR0IArs4c6QAAAARnQU1BAACxjwv8YQUAAABmUExURQAAAAAAAP///8/Pz5eXl39/f7+/v/f397e3txgYGFhYWOfn55+fn9/f3ygoKK+vr8fHx4eHh+/v76enp0hISFBQUDg4ODAwMGBgYCAgIAgICGhoaI+Pj9fX13BwcBAQEEBAQHh4eLSiW/UAAAABdFJOUwBA5thmAAAACXBIWXMAABcRAAAXEQHKJvM/AAADpElEQVR4Xu2ZXbeyIBBGj5WWlXWyk1lqH///T74MjPr4USugi9bb7CtU3IsQBph+xgnc4LefwTVt4befEQQTe8SMiBkRMyJmRMyImBExI2JGxIyIGREzImZEzIiYETEjYkbEjIgZETPyNebpLBwQzflhjYN5EXOutsdyxRUM9uY1i4bECVfRWJsfi4Nggz1ibX7QFYYtVyJszb8kiHdTvqxJ93/04MCXhK1Zd0bEFx0y9eDIZcLWHJI55YsOuXpw4jLxvjZv1AOfNj/o50l0oAc+/dyMDfzh1BEan7Ex2bFkzOw3nmvNiNlzDqqPeCLNwHwuukPGwWxiXcllYvumWPcin2NOTJx/gM+oi+hjPSTnWsQ3mIf9XMBasONahK25R1UeWRqcl/vOVPExTy8UOTVxgcNC42xetL2wuQyCqsLJPN/nV7YGx7Liuz2czAlbg8Osu3tBvMxZ2YmbXZzMKXTG7kFnOH/BqB0Xm3DsAzqbFVVJWwzNaWR0eJgVq/XhzPK46O0VbM1p1GNx0YsXEee/XIuwNUsURfP09ow3RtEnfIs5ym+bdg+drkPq4nDd2yTZm1dmTtfm9nQYL/iWwdqc8pRjc+cQtzf3DNbmJVuMuarDhibGJdbWnBrVITQx36zcWXg3vyTUNw225j0JmhP2lq5OOvbrA8xS3zXYmmckaEIaNfnMi8pNlX3Pg1cumyZf+OKuyj7nQd0bPC70MDnXPUOrV8ZlwtY8JfNBf76VPmpzkxN9uPXp57kZG8fbzUwY0+R6WZnpOgZb86RkCWNcbPY7D86bzSfBx2FjPuMyaG+epIXWaO7cSG2+dfc09mY1pcOcolvRbo/KMFx3GqxwMb+GmBExI2JGPswsOfMayZmDWXLmL/Sz5Mxb+Nb35cyTzsmsD+7sbM1REIcPcnTJPfbObyz7u0PFlgLHGzInm+4pe7UzO+i35GSuRTPGFvW51suchk0GMPijKVc3lzitTSWNrVlRtXm0071p7iAb6GBW/GIKnhhJMrqZFQs4CWXD3KWzueLkABMX3awJ4WJOyuYrnprSNe9l+q3N6YySAoY/NdXbIafkPnlRfe7WXAuOEjDu3jFTNjOMmXpqK/zNy8Eaq8KRvzm+jwe7feZnznAG96i8VtiX+Ryz/Fv6X5i5/BwxI2JGPsf8OmJGxIyIGREzImZEzIiYETEjYkbEjIgZETMiZkTMiJgRMSNiRsSMiBl50ewEv/0MrmkLv634+fkHsXh9I6fSwZEAAAAASUVORK5CYII=;" vertex="1" parent="1">
          <mxGeometry x="470" y="422.04" width="57.07" height="150.68" as="geometry" />
        </mxCell>
      </root>
    </mxGraphModel>
  </diagram>
</mxfile>
